                                                                        S      1
,,14HFront Wheel v5,14HFront Wheel_v5,7Hunknown,7Hunknown,32,38,7,99,15,G      1
,1.,2,2HMM,1,0.08,15H20250603.171424,0.01,10000.,7Hunknown,7Hunknown,11,G      2
0,15H20250522.025857;                                                   G      3
     186       1                                                00000000D      1
     186            -201       1       0                               0D      2
     514       2                                                00010000D      3
     514                       2       1                               0D      4
     510       4                                                00010000D      5
     510            -201       1       1                               0D      6
     510       5                                                00010000D      7
     510            -201       1       1                               0D      8
     510       6                                                00010000D      9
     510            -201       1       1                               0D     10
     510       7                                                00010000D     11
     510            -201       1       1                               0D     12
     510       8                                                00010000D     13
     510            -201       1       1                               0D     14
     510       9                                                00010000D     15
     510            -201       1       1                               0D     16
     510      10                                                00010000D     17
     510            -201       1       1                               0D     18
     510      11                                                00010000D     19
     510            -201       1       1                               0D     20
     510      12                                                00010000D     21
     510            -201       1       1                               0D     22
     510      13                                                00010000D     23
     510            -201       1       1                               0D     24
     510      14                                                00010000D     25
     510            -201       1       1                               0D     26
     510      15                                                00010000D     27
     510            -201       1       1                               0D     28
     510      16                                                00010000D     29
     510            -201       1       1                               0D     30
     510      17                                                00010000D     31
     510            -201       1       1                               0D     32
     510      18                                                00010000D     33
     510            -201       1       1                               0D     34
     510      19                                                00010000D     35
     510            -201       1       1                               0D     36
     510      20                                                00010000D     37
     510            -201       1       1                               0D     38
     510      21                                                00010000D     39
     510            -201       1       1                               0D     40
     508      22                                                00010000D     41
     508                       2       1                               0D     42
     508      24                                                00010000D     43
     508                       1       1                               0D     44
     508      25                                                00010000D     45
     508                       1       1                               0D     46
     508      26                                                00010000D     47
     508                       1       1                               0D     48
     508      27                                                00010000D     49
     508                       1       1                               0D     50
     508      28                                                00010000D     51
     508                       1       1                               0D     52
     508      29                                                00010000D     53
     508                       1       1                               0D     54
     508      30                                                00010000D     55
     508                       1       1                               0D     56
     508      31                                                00010000D     57
     508                       1       1                               0D     58
     508      32                                                00010000D     59
     508                       1       1                               0D     60
     508      33                                                00010000D     61
     508                       1       1                               0D     62
     508      34                                                00010000D     63
     508                       2       1                               0D     64
     508      36                                                00010000D     65
     508                       2       1                               0D     66
     508      38                                                00010000D     67
     508                       2       1                               0D     68
     508      40                                                00010000D     69
     508                       1       1                               0D     70
     508      41                                                00010000D     71
     508                       1       1                               0D     72
     508      42                                                00010000D     73
     508                       1       1                               0D     74
     508      43                                                00010000D     75
     508                       1       1                               0D     76
     508      44                                                00010000D     77
     508                       1       1                               0D     78
     508      45                                                00010000D     79
     508                       1       1                               0D     80
     508      46                                                00010000D     81
     508                       1       1                               0D     82
     508      47                                                00010000D     83
     508                       1       1                               0D     84
     508      48                                                00010000D     85
     508                       1       1                               0D     86
     508      49                                                00010000D     87
     508                       1       1                               0D     88
     508      50                                                00010000D     89
     508                       1       1                               0D     90
     508      51                                                00010000D     91
     508                       1       1                               0D     92
     126      52                                                00010000D     93
     126       0              12       0                               0D     94
     126      64                                                00010000D     95
     126       0               4       0                               0D     96
     126      68                                                00010000D     97
     126       0               6       0                               0D     98
     126      74                                                00010000D     99
     126       0               5       0                               0D    100
     126      79                                                00010000D    101
     126       0               5       0                               0D    102
     126      84                                                00010000D    103
     126       0               8       0                               0D    104
     126      92                                                00010000D    105
     126       0              10       0                               0D    106
     126     102                                                00010000D    107
     126       0               2       0                               0D    108
     126     104                                                00010000D    109
     126       0              10       0                               0D    110
     126     114                                                00010000D    111
     126       0              10       0                               0D    112
     126     124                                                00010000D    113
     126       0              10       0                               0D    114
     126     134                                                00010000D    115
     126       0               2       0                               0D    116
     126     136                                                00010000D    117
     126       0              10       0                               0D    118
     126     146                                                00010000D    119
     126       0              10       0                               0D    120
     126     156                                                00010000D    121
     126       0               3       0                               0D    122
     126     159                                                00010000D    123
     126       0               5       0                               0D    124
     126     164                                                00010000D    125
     126       0               8       0                               0D    126
     126     172                                                00010000D    127
     126       0               5       0                               0D    128
     126     177                                                00010000D    129
     126       0               3       0                               0D    130
     126     180                                                00010000D    131
     126       0               7       0                               0D    132
     126     187                                                00010000D    133
     126       0               8       0                               0D    134
     126     195                                                00010000D    135
     126       0               5       0                               0D    136
     126     200                                                00010000D    137
     126       0               5       0                               0D    138
     126     205                                                00010000D    139
     126       0              10       0                               0D    140
     126     215                                                00010000D    141
     126       0               3       0                               0D    142
     126     218                                                00010000D    143
     126       0              10       0                               0D    144
     126     228                                                00010000D    145
     126       0               2       0                               0D    146
     126     230                                                00010000D    147
     126       0              10       0                               0D    148
     126     240                                                00010000D    149
     126       0               3       0                               0D    150
     126     243                                                00010000D    151
     126       0              10       0                               0D    152
     126     253                                                00010000D    153
     126       0              10       0                               0D    154
     126     263                                                00010000D    155
     126       0               2       0                               0D    156
     126     265                                                00010000D    157
     126       0              10       0                               0D    158
     128     275                                                00010000D    159
     128       0    -201      25       0                               0D    160
     128     300                                                00010000D    161
     128       0    -201       3       0                               0D    162
     128     303                                                00010000D    163
     128       0    -201      12       0                               0D    164
     128     315                                                00010000D    165
     128       0    -201       3       0                               0D    166
     128     318                                                00010000D    167
     128       0    -201      13       0                               0D    168
     128     331                                                00010000D    169
     128       0    -201       3       0                               0D    170
     128     334                                                00010000D    171
     128       0    -201       3       0                               0D    172
     128     337                                                00010000D    173
     128       0    -201      18       0                               0D    174
     128     355                                                00010000D    175
     128       0    -201      13       0                               0D    176
     128     368                                                00010000D    177
     128       0    -201      25       0                               0D    178
     128     393                                                00010000D    179
     128       0    -201       3       0                               0D    180
     128     396                                                00010000D    181
     128       0    -201      14       0                               0D    182
     128     410                                                00010000D    183
     128       0    -201      13       0                               0D    184
     128     423                                                00010000D    185
     128       0    -201       3       0                               0D    186
     128     426                                                00010000D    187
     128       0    -201      13       0                               0D    188
     128     439                                                00010000D    189
     128       0    -201      13       0                               0D    190
     128     452                                                00010000D    191
     128       0    -201       3       0                               0D    192
     128     455                                                00010000D    193
     128       0    -201       3       0                               0D    194
     502     458                                                00010000D    195
     502                      11       1                               0D    196
     504     469                                                00010001D    197
     504                      10       1                               0D    198
     406     479                                                00000000D    199
     406                       1      15                               0D    200
     314     480                                                00000200D    201
     314                       2       0                               0D    202
     314     482                                                00000200D    203
     314                       2       0                               0D    204
186,3,1,0,0,1,199;                                                     1P      1
514,18,5,1,7,1,9,1,11,1,13,1,15,1,17,1,19,1,21,1,23,1,25,1,27,1,       3P      2
29,1,31,1,33,1,35,1,37,1,39,1;                                         3P      3
510,159,1,1,41;                                                        5P      4
510,161,2,1,43,45;                                                     7P      5
510,163,1,1,47;                                                        9P      6
510,165,2,1,49,51;                                                    11P      7
510,167,1,1,53;                                                       13P      8
510,169,2,1,55,57;                                                    15P      9
510,171,2,1,59,61;                                                    17P     10
510,173,1,1,63;                                                       19P     11
510,175,1,1,65;                                                       21P     12
510,177,1,1,67;                                                       23P     13
510,179,2,1,69,71;                                                    25P     14
510,181,1,1,73;                                                       27P     15
510,183,1,1,75;                                                       29P     16
510,185,2,1,77,79;                                                    31P     17
510,187,1,1,81;                                                       33P     18
510,189,1,1,83;                                                       35P     19
510,191,2,1,85,87;                                                    37P     20
510,193,2,1,89,91;                                                    39P     21
508,5,0,197,1,1,0,0,197,2,1,0,0,197,3,0,0,0,197,4,0,0,0,197,2,0,      41P     22
0;                                                                    41P     23
508,2,0,197,5,0,0,0,197,6,0,0;                                        43P     24
508,1,0,197,1,0,0;                                                    45P     25
508,4,0,197,7,0,0,0,197,8,1,0,0,197,9,1,0,0,197,8,0,0;                47P     26
508,1,0,197,9,0,0;                                                    49P     27
508,1,0,197,10,0,0;                                                   51P     28
508,4,0,197,11,0,0,0,197,12,1,0,0,197,13,1,0,0,197,12,0,0;            53P     29
508,1,0,197,13,0,0;                                                   55P     30
508,1,0,197,14,0,0;                                                   57P     31
508,2,0,197,3,1,0,0,197,4,1,0;                                        59P     32
508,1,0,197,11,1,0;                                                   61P     33
508,6,0,197,5,1,0,0,197,15,1,0,0,197,16,1,0,0,197,17,1,0,0,197,       63P     34
15,0,0,0,197,6,1,0;                                                   63P     35
508,6,0,197,18,0,0,0,197,19,1,0,0,197,16,0,0,0,197,17,0,0,0,197,      65P     36
19,0,0,0,197,20,0,0;                                                  65P     37
508,6,0,197,21,1,0,0,197,22,1,0,0,197,20,1,0,0,197,18,1,0,0,197,      67P     38
22,0,0,0,197,23,1,0;                                                  67P     39
508,1,0,197,24,0,0;                                                   69P     40
508,2,0,197,21,0,0,0,197,23,0,0;                                      71P     41
508,4,0,197,14,1,0,0,197,25,1,0,0,197,10,1,0,0,197,25,0,0;            73P     42
508,4,0,197,26,0,0,0,197,27,1,0,0,197,24,1,0,0,197,27,0,0;            75P     43
508,1,0,197,26,1,0;                                                   77P     44
508,1,0,197,28,0,0;                                                   79P     45
508,4,0,197,28,1,0,0,197,29,1,0,0,197,30,0,0,0,197,29,0,0;            81P     46
508,4,0,197,31,0,0,0,197,32,1,0,0,197,33,0,0,0,197,32,0,0;            83P     47
508,1,0,197,33,1,0;                                                   85P     48
508,1,0,197,7,1,0;                                                    87P     49
508,1,0,197,31,1,0;                                                   89P     50
508,1,0,197,30,1,0;                                                   91P     51
126,8,2,0,1,0,0,-3.14159265358979,-3.14159265358979,                  93P     52
-3.14159265358979,-1.5707963267949,-1.5707963267949,0.,0.,            93P     53
1.5707963267949,1.5707963267949,3.14159265358979,                     93P     54
3.14159265358979,3.14159265358979,1.,0.707106781186548,1.,            93P     55
0.707106781186548,1.,0.707106781186548,1.,0.707106781186548,1.,       93P     56
13.5196960070847,22.,1.65568524405216D-15,13.5196960070847,22.,       93P     57
13.5196960070847,-8.27842622026078D-16,22.,13.5196960070847,          93P     58
-13.5196960070847,22.,13.5196960070847,-13.5196960070847,22.,0.,      93P     59
-13.5196960070847,22.,-13.5196960070847,-8.27842622026078D-16,        93P     60
22.,-13.5196960070847,13.5196960070847,22.,-13.5196960070847,         93P     61
13.5196960070847,22.,-1.65568524405216D-15,-3.14159265358979,         93P     62
3.14159265358979,0.,0.,0.;                                            93P     63
126,2,2,0,0,0,0,1.5707963267949,1.5707963267949,1.5707963267949,      95P     64
2.8368999995744,2.8368999995744,2.8368999995744,1.,                   95P     65
0.806225774829853,1.,13.5196960070847,22.,0.,9.85069907855801,        95P     66
22.,0.,8.75,18.5,0.,1.5707963267949,2.8368999995744,0.,0.,0.;         95P     67
126,4,2,0,0,0,0,-3.14159265358979,-3.14159265358979,                  97P     68
-3.14159265358979,-1.5707963267949,-1.5707963267949,0.,0.,0.,1.,      97P     69
0.707106781186547,1.,0.707106781186547,1.,-8.75,18.5,                 97P     70
-1.07156594925393D-15,-8.75,18.5,-8.75,5.35782974626967D-16,          97P     71
18.5,-8.75,8.75,18.5,-8.75,8.75,18.5,0.,-3.14159265358979,0.,0.,      97P     72
0.,0.;                                                                97P     73
126,4,2,0,0,0,0,0.,0.,0.,1.5707963267949,1.5707963267949,             99P     74
3.14159265358979,3.14159265358979,3.14159265358979,1.,                99P     75
0.707106781186547,1.,0.707106781186547,1.,8.75,18.5,0.,8.75,          99P     76
18.5,8.75,5.35782974626967D-16,18.5,8.75,-8.75,18.5,8.75,-8.75,       99P     77
18.5,1.07156594925393D-15,0.,3.14159265358979,0.,0.,0.;               99P     78
126,2,2,0,0,0,0,-3.14159265358979,-3.14159265358979,                 101P     79
-3.14159265358979,-1.5707963267949,-1.5707963267949,                 101P     80
-1.5707963267949,1.,0.707106781186547,1.,15.5,22.,                   101P     81
-1.8982025386784D-15,15.5,22.,-15.5,-9.49101269339199D-16,22.,       101P     82
-15.5,-3.14159265358979,-1.5707963267949,0.,0.,0.;                   101P     83
126,6,2,0,0,0,0,-1.5707963267949,-1.5707963267949,                   103P     84
-1.5707963267949,0.,0.,1.5707963267949,1.5707963267949,              103P     85
3.14159265358979,3.14159265358979,3.14159265358979,1.,               103P     86
0.707106781186548,1.,0.707106781186548,1.,0.707106781186547,1.,      103P     87
-9.49101269339199D-16,22.,-15.5,-15.5,22.,-15.5,-15.5,22.,0.,        103P     88
-15.5,22.,15.5,-9.49101269339199D-16,22.,15.5,15.5,22.,15.5,         103P     89
15.5,22.,1.8982025386784D-15,-1.5707963267949,3.14159265358979,      103P     90
0.,0.,0.;                                                            103P     91
126,8,2,0,1,0,0,-3.14159265358979,-3.14159265358979,                 105P     92
-3.14159265358979,-1.5707963267949,-1.5707963267949,0.,0.,           105P     93
1.5707963267949,1.5707963267949,3.14159265358979,                    105P     94
3.14159265358979,3.14159265358979,1.,0.707106781186548,1.,           105P     95
0.707106781186548,1.,0.707106781186548,1.,0.707106781186548,1.,      105P     96
7.5,26.,9.18485099360515D-16,7.5,26.,7.5,-4.59242549680257D-16,      105P     97
26.,7.5,-7.5,26.,7.5,-7.5,26.,0.,-7.5,26.,-7.5,                      105P     98
-4.59242549680257D-16,26.,-7.5,7.5,26.,-7.5,7.5,26.,                 105P     99
-9.18485099360515D-16,-3.14159265358979,3.14159265358979,0.,0.,      105P    100
0.;                                                                  105P    101
126,1,1,0,0,1,0,0.,0.,0.0933333333333331,0.0933333333333331,1.,      107P    102
1.,7.5,26.,0.,7.5,25.3,0.,0.,0.0933333333333331,0.,0.,0.;            107P    103
126,8,2,0,1,0,0,-3.14159265358979,-3.14159265358979,                 109P    104
-3.14159265358979,-1.5707963267949,-1.5707963267949,0.,0.,           109P    105
1.5707963267949,1.5707963267949,3.14159265358979,                    109P    106
3.14159265358979,3.14159265358979,1.,0.707106781186548,1.,           109P    107
0.707106781186548,1.,0.707106781186548,1.,0.707106781186548,1.,      109P    108
7.5,25.3,9.18485099360515D-16,7.5,25.3,7.5,                          109P    109
-4.59242549680257D-16,25.3,7.5,-7.5,25.3,7.5,-7.5,25.3,0.,-7.5,      109P    110
25.3,-7.5,-4.59242549680257D-16,25.3,-7.5,7.5,25.3,-7.5,7.5,         109P    111
25.3,-9.18485099360515D-16,-3.14159265358979,3.14159265358979,       109P    112
0.,0.,0.;                                                            109P    113
126,8,2,0,1,0,0,-3.14159265358979,-3.14159265358979,                 111P    114
-3.14159265358979,-1.5707963267949,-1.5707963267949,0.,0.,           111P    115
1.5707963267949,1.5707963267949,3.14159265358979,                    111P    116
3.14159265358979,3.14159265358979,1.,0.707106781186548,1.,           111P    117
0.707106781186548,1.,0.707106781186548,1.,0.707106781186548,1.,      111P    118
-6.15,25.3,7.53157781475622D-16,-6.15,25.3,6.15,                     111P    119
3.76578890737811D-16,25.3,6.15,6.15,25.3,6.15,6.15,25.3,0.,6.15,     111P    120
25.3,-6.15,3.76578890737811D-16,25.3,-6.15,-6.15,25.3,-6.15,         111P    121
-6.15,25.3,-7.53157781475622D-16,-3.14159265358979,                  111P    122
3.14159265358979,0.,0.,0.;                                           111P    123
126,8,2,0,1,0,0,-3.14159265358979,-3.14159265358979,                 113P    124
-3.14159265358979,-1.5707963267949,-1.5707963267949,0.,0.,           113P    125
1.5707963267949,1.5707963267949,3.14159265358979,                    113P    126
3.14159265358979,3.14159265358979,1.,0.707106781186548,1.,           113P    127
0.707106781186548,1.,0.707106781186548,1.,0.707106781186548,1.,      113P    128
-7.5,18.5,9.18485099360515D-16,-7.5,18.5,7.5,                        113P    129
4.59242549680257D-16,18.5,7.5,7.5,18.5,7.5,7.5,18.5,0.,7.5,18.5,     113P    130
-7.5,4.59242549680257D-16,18.5,-7.5,-7.5,18.5,-7.5,-7.5,18.5,        113P    131
-9.18485099360515D-16,-3.14159265358979,3.14159265358979,0.,0.,      113P    132
0.;                                                                  113P    133
126,1,1,0,0,1,0,0.,0.,0.0933333333333334,0.0933333333333334,1.,      115P    134
1.,-7.5,18.5,0.,-7.5,19.2,0.,0.,0.0933333333333334,0.,0.,0.;         115P    135
126,8,2,0,1,0,0,-3.14159265358979,-3.14159265358979,                 117P    136
-3.14159265358979,-1.5707963267949,-1.5707963267949,0.,0.,           117P    137
1.5707963267949,1.5707963267949,3.14159265358979,                    117P    138
3.14159265358979,3.14159265358979,1.,0.707106781186548,1.,           117P    139
0.707106781186548,1.,0.707106781186548,1.,0.707106781186548,1.,      117P    140
-7.5,19.2,9.18485099360515D-16,-7.5,19.2,7.5,                        117P    141
4.59242549680257D-16,19.2,7.5,7.5,19.2,7.5,7.5,19.2,0.,7.5,19.2,     117P    142
-7.5,4.59242549680257D-16,19.2,-7.5,-7.5,19.2,-7.5,-7.5,19.2,        117P    143
-9.18485099360515D-16,-3.14159265358979,3.14159265358979,0.,0.,      117P    144
0.;                                                                  117P    145
126,8,2,0,1,0,0,-3.14159265358979,-3.14159265358979,                 119P    146
-3.14159265358979,-1.5707963267949,-1.5707963267949,0.,0.,           119P    147
1.5707963267949,1.5707963267949,3.14159265358979,                    119P    148
3.14159265358979,3.14159265358979,1.,0.707106781186548,1.,           119P    149
0.707106781186548,1.,0.707106781186548,1.,0.707106781186548,1.,      119P    150
-6.15,19.2,-7.53157781475622D-16,-6.15,19.2,-6.15,                   119P    151
3.76578890737811D-16,19.2,-6.15,6.15,19.2,-6.15,6.15,19.2,0.,        119P    152
6.15,19.2,6.15,3.76578890737811D-16,19.2,6.15,-6.15,19.2,6.15,       119P    153
-6.15,19.2,7.53157781475622D-16,-3.14159265358979,                   119P    154
3.14159265358979,0.,0.,0.;                                           119P    155
126,2,2,0,0,0,0,-1.5707963267949,-1.5707963267949,                   121P    156
-1.5707963267949,0.,0.,0.,1.,0.707106781186549,1.,0.,22.,-15.5,      121P    157
0.,22.,-20.5,0.,17.,-20.5,-1.5707963267949,0.,0.,0.,0.;              121P    158
126,2,2,0,0,0,0,1.5707963267949,1.5707963267949,1.5707963267949,     123P    159
3.14159265358979,3.14159265358979,3.14159265358979,1.,               123P    160
0.707106781186548,1.,-1.25526296912604D-15,17.,-20.5,20.5,17.,       123P    161
-20.5,20.5,17.,-2.51052593825207D-15,1.5707963267949,                123P    162
3.14159265358979,0.,0.,0.;                                           123P    163
126,6,2,0,0,0,0,-3.14159265358979,-3.14159265358979,                 125P    164
-3.14159265358979,-1.5707963267949,-1.5707963267949,0.,0.,           125P    165
1.5707963267949,1.5707963267949,1.5707963267949,1.,                  125P    166
0.707106781186548,1.,0.707106781186548,1.,0.707106781186548,1.,      125P    167
20.5,17.,2.51052593825207D-15,20.5,17.,20.5,                         125P    168
-1.25526296912604D-15,17.,20.5,-20.5,17.,20.5,-20.5,17.,0.,          125P    169
-20.5,17.,-20.5,-1.25526296912604D-15,17.,-20.5,                     125P    170
-3.14159265358979,1.5707963267949,0.,0.,0.;                          125P    171
126,2,2,0,0,0,0,-3.14159265358979,-3.14159265358979,                 127P    172
-3.14159265358979,-1.5707963267949,-1.5707963267949,                 127P    173
-1.5707963267949,1.,0.707106781186548,1.,20.5,1.,                    127P    174
-2.51052593825207D-15,20.5,1.,-20.5,-1.25526296912604D-15,1.,        127P    175
-20.5,-3.14159265358979,-1.5707963267949,0.,0.,0.;                   127P    176
126,1,1,0,0,1,0,-1.21951219512195,-1.21951219512195,                 129P    177
-0.439024390243902,-0.439024390243902,1.,1.,20.5,1.,0.,20.5,17.,     129P    178
0.,-1.21951219512195,-0.439024390243902,0.,0.,0.;                    129P    179
126,6,2,0,0,0,0,-1.5707963267949,-1.5707963267949,                   131P    180
-1.5707963267949,0.,0.,1.5707963267949,1.5707963267949,              131P    181
3.14159265358979,3.14159265358979,3.14159265358979,1.,               131P    182
0.707106781186548,1.,0.707106781186548,1.,0.707106781186548,1.,      131P    183
-1.25526296912604D-15,1.,-20.5,-20.5,1.,-20.5,-20.5,1.,0.,-20.5,     131P    184
1.,20.5,-1.25526296912604D-15,1.,20.5,20.5,1.,20.5,20.5,1.,          131P    185
2.51052593825207D-15,-1.5707963267949,3.14159265358979,0.,0.,0.;     131P    186
126,6,2,0,0,0,0,-3.14159265358979,-3.14159265358979,                 133P    187
-3.14159265358979,-1.5707963267949,-1.5707963267949,0.,0.,           133P    188
1.5707963267949,1.5707963267949,1.5707963267949,1.,                  133P    189
0.707106781186548,1.,0.707106781186548,1.,0.707106781186548,1.,      133P    190
21.5,0.,2.63299061816681D-15,21.5,0.,21.5,-1.3164953090834D-15,      133P    191
0.,21.5,-21.5,0.,21.5,-21.5,0.,0.,-21.5,0.,-21.5,                    133P    192
-1.3164953090834D-15,0.,-21.5,-3.14159265358979,1.5707963267949,     133P    193
0.,0.,0.;                                                            133P    194
126,2,2,0,0,0,0,1.5707963267949,1.5707963267949,1.5707963267949,     135P    195
3.14159265358979,3.14159265358979,3.14159265358979,1.,               135P    196
0.707106781186541,1.,0.,8.32667268468867D-16,-21.5,0.,               135P    197
-1.49795071522904D-16,-20.5,0.,1.,-20.5,1.5707963267949,             135P    198
3.14159265358979,0.,0.,0.;                                           135P    199
126,2,2,0,0,0,0,1.5707963267949,1.5707963267949,1.5707963267949,     137P    200
3.14159265358979,3.14159265358979,3.14159265358979,1.,               137P    201
0.707106781186548,1.,-1.3164953090834D-15,0.,-21.5,21.5,0.,          137P    202
-21.5,21.5,0.,-2.63299061816681D-15,1.5707963267949,                 137P    203
3.14159265358979,0.,0.,0.;                                           137P    204
126,8,2,0,1,0,0,-3.14159265358979,-3.14159265358979,                 139P    205
-3.14159265358979,-1.5707963267949,-1.5707963267949,0.,0.,           139P    206
1.5707963267949,1.5707963267949,3.14159265358979,                    139P    207
3.14159265358979,3.14159265358979,1.,0.707106781186548,1.,           139P    208
0.707106781186548,1.,0.707106781186548,1.,0.707106781186548,1.,      139P    209
26.25,0.,-3.2146978477618D-15,26.25,0.,-26.25,                       139P    210
-1.6073489238809D-15,0.,-26.25,-26.25,0.,-26.25,-26.25,0.,0.,        139P    211
-26.25,0.,26.25,-1.6073489238809D-15,0.,26.25,26.25,0.,26.25,        139P    212
26.25,0.,3.2146978477618D-15,-3.14159265358979,3.14159265358979,     139P    213
0.,0.,0.;                                                            139P    214
126,1,1,0,0,1,0,-0.455284552845528,-0.455284552845528,               141P    215
0.536585365853659,0.536585365853659,1.,1.,-6.15,19.2,0.,-6.15,       141P    216
25.3,0.,-0.455284552845528,0.536585365853659,0.,0.,0.;               141P    217
126,8,2,0,1,0,0,-3.14159265358979,-3.14159265358979,                 143P    218
-3.14159265358979,-1.5707963267949,-1.5707963267949,0.,0.,           143P    219
1.5707963267949,1.5707963267949,3.14159265358979,                    143P    220
3.14159265358979,3.14159265358979,1.,0.707106781186548,1.,           143P    221
0.707106781186548,1.,0.707106781186548,1.,0.707106781186548,1.,      143P    222
26.25,2.,-3.2146978477618D-15,26.25,2.,-26.25,                       143P    223
-1.6073489238809D-15,2.,-26.25,-26.25,2.,-26.25,-26.25,2.,0.,        143P    224
-26.25,2.,26.25,-1.6073489238809D-15,2.,26.25,26.25,2.,26.25,        143P    225
26.25,2.,3.2146978477618D-15,-3.14159265358979,3.14159265358979,     143P    226
0.,0.,0.;                                                            143P    227
126,1,1,0,0,1,0,-0.0761904761904762,-0.0761904761904762,0.,0.,       145P    228
1.,1.,26.25,2.,0.,26.25,0.,0.,-0.0761904761904762,0.,0.,0.,0.;       145P    229
126,8,2,0,1,0,0,-3.14159265358979,-3.14159265358979,                 147P    230
-3.14159265358979,-1.5707963267949,-1.5707963267949,0.,0.,           147P    231
1.5707963267949,1.5707963267949,3.14159265358979,                    147P    232
3.14159265358979,3.14159265358979,1.,0.707106781186548,1.,           147P    233
0.707106781186548,1.,0.707106781186548,1.,0.707106781186548,1.,      147P    234
23.5,2.,-2.87791997799628D-15,23.5,2.,-23.5,                         147P    235
-1.43895998899814D-15,2.,-23.5,-23.5,2.,-23.5,-23.5,2.,0.,-23.5,     147P    236
2.,23.5,-1.43895998899814D-15,2.,23.5,23.5,2.,23.5,23.5,2.,          147P    237
2.87791997799628D-15,-3.14159265358979,3.14159265358979,0.,0.,       147P    238
0.;                                                                  147P    239
126,1,1,0,0,1,0,-1.02127659574468,-1.02127659574468,                 149P    240
-0.0851063829787235,-0.0851063829787235,1.,1.,23.5,2.,0.,23.5,       149P    241
24.,0.,-1.02127659574468,-0.0851063829787235,0.,0.,0.;               149P    242
126,8,2,0,1,0,0,-3.14159265358979,-3.14159265358979,                 151P    243
-3.14159265358979,-1.5707963267949,-1.5707963267949,0.,0.,           151P    244
1.5707963267949,1.5707963267949,3.14159265358979,                    151P    245
3.14159265358979,3.14159265358979,1.,0.707106781186548,1.,           151P    246
0.707106781186548,1.,0.707106781186548,1.,0.707106781186548,1.,      151P    247
23.5,24.,-2.87791997799628D-15,23.5,24.,-23.5,                       151P    248
-1.43895998899814D-15,24.,-23.5,-23.5,24.,-23.5,-23.5,24.,0.,        151P    249
-23.5,24.,23.5,-1.43895998899814D-15,24.,23.5,23.5,24.,23.5,         151P    250
23.5,24.,2.87791997799628D-15,-3.14159265358979,                     151P    251
3.14159265358979,0.,0.,0.;                                           151P    252
126,8,2,0,1,0,0,-3.14159265358979,-3.14159265358979,                 153P    253
-3.14159265358979,-1.5707963267949,-1.5707963267949,0.,0.,           153P    254
1.5707963267949,1.5707963267949,3.14159265358979,                    153P    255
3.14159265358979,3.14159265358979,1.,0.707106781186548,1.,           153P    256
0.707106781186548,1.,0.707106781186548,1.,0.707106781186548,1.,      153P    257
26.25,24.,3.2146978477618D-15,26.25,24.,26.25,                       153P    258
-1.6073489238809D-15,24.,26.25,-26.25,24.,26.25,-26.25,24.,0.,       153P    259
-26.25,24.,-26.25,-1.6073489238809D-15,24.,-26.25,26.25,24.,         153P    260
-26.25,26.25,24.,-3.2146978477618D-15,-3.14159265358979,             153P    261
3.14159265358979,0.,0.,0.;                                           153P    262
126,1,1,0,0,1,0,-0.0761904761904763,-0.0761904761904763,0.,0.,       155P    263
1.,1.,26.25,24.,0.,26.25,26.,0.,-0.0761904761904763,0.,0.,0.,0.;     155P    264
126,8,2,0,1,0,0,-3.14159265358979,-3.14159265358979,                 157P    265
-3.14159265358979,-1.5707963267949,-1.5707963267949,0.,0.,           157P    266
1.5707963267949,1.5707963267949,3.14159265358979,                    157P    267
3.14159265358979,3.14159265358979,1.,0.707106781186548,1.,           157P    268
0.707106781186548,1.,0.707106781186548,1.,0.707106781186548,1.,      157P    269
26.25,26.,-3.2146978477618D-15,26.25,26.,-26.25,                     157P    270
-1.6073489238809D-15,26.,-26.25,-26.25,26.,-26.25,-26.25,26.,0.,     157P    271
-26.25,26.,26.25,-1.6073489238809D-15,26.,26.25,26.25,26.,26.25,     157P    272
26.25,26.,3.2146978477618D-15,-3.14159265358979,                     157P    273
3.14159265358979,0.,0.,0.;                                           157P    274
128,2,8,2,2,0,1,0,0,1,-2.8368999995744,-2.8368999995744,             159P    275
-2.8368999995744,-1.5707963267949,-1.5707963267949,                  159P    276
-1.5707963267949,-3.14159265358979,-3.14159265358979,                159P    277
-3.14159265358979,-1.5707963267949,-1.5707963267949,0.,0.,           159P    278
1.5707963267949,1.5707963267949,3.14159265358979,                    159P    279
3.14159265358979,3.14159265358979,1.,0.806225774829853,1.,           159P    280
0.707106781186548,0.570087712549567,0.707106781186548,1.,            159P    281
0.806225774829853,1.,0.707106781186548,0.570087712549567,            159P    282
0.707106781186548,1.,0.806225774829853,1.,0.707106781186548,         159P    283
0.570087712549567,0.707106781186548,1.,0.806225774829853,1.,         159P    284
0.707106781186548,0.570087712549567,0.707106781186548,1.,            159P    285
0.806225774829853,1.,8.75,18.5,0.,9.85069907855801,22.,0.,           159P    286
13.5196960070847,22.,0.,8.75,18.5,8.75,9.85069907855801,22.,         159P    287
9.85069907855801,13.5196960070847,22.,13.5196960070847,0.,18.5,      159P    288
8.75,0.,22.,9.85069907855801,0.,22.,13.5196960070847,-8.75,18.5,     159P    289
8.75,-9.85069907855801,22.,9.85069907855801,-13.5196960070847,       159P    290
22.,13.5196960070847,-8.75,18.5,0.,-9.85069907855801,22.,0.,         159P    291
-13.5196960070847,22.,0.,-8.75,18.5,-8.75,-9.85069907855801,22.,     159P    292
-9.85069907855801,-13.5196960070847,22.,-13.5196960070847,0.,        159P    293
18.5,-8.75,0.,22.,-9.85069907855801,0.,22.,-13.5196960070847,        159P    294
8.75,18.5,-8.75,9.85069907855801,22.,-9.85069907855801,              159P    295
13.5196960070847,22.,-13.5196960070847,8.75,18.5,0.,                 159P    296
9.85069907855801,22.,0.,13.5196960070847,22.,0.,                     159P    297
-2.8368999995744,-1.5707963267949,-3.14159265358979,                 159P    298
3.14159265358979;                                                    159P    299
128,1,1,1,1,0,0,1,0,0,-1.551,-1.551,1.551,1.551,-1.551,-1.551,       161P    300
1.551,1.551,1.,1.,1.,1.,-15.51,22.,-15.51,15.51,22.,-15.51,          161P    301
-15.51,22.,15.51,15.51,22.,15.51,-1.551,1.551,-1.551,1.551;          161P    302
128,1,8,1,2,0,1,0,0,1,0.,0.,0.0933333333333331,                      163P    303
0.0933333333333331,-3.14159265358979,-3.14159265358979,              163P    304
-3.14159265358979,-1.5707963267949,-1.5707963267949,0.,0.,           163P    305
1.5707963267949,1.5707963267949,3.14159265358979,                    163P    306
3.14159265358979,3.14159265358979,1.,1.,0.707106781186548,           163P    307
0.707106781186548,1.,1.,0.707106781186548,0.707106781186548,1.,      163P    308
1.,0.707106781186548,0.707106781186548,1.,1.,0.707106781186548,      163P    309
0.707106781186548,1.,1.,7.5,26.,0.,7.5,25.3,0.,7.5,26.,7.5,7.5,      163P    310
25.3,7.5,0.,26.,7.5,0.,25.3,7.5,-7.5,26.,7.5,-7.5,25.3,7.5,-7.5,     163P    311
26.,0.,-7.5,25.3,0.,-7.5,26.,-7.5,-7.5,25.3,-7.5,0.,26.,-7.5,0.,     163P    312
25.3,-7.5,7.5,26.,-7.5,7.5,25.3,-7.5,7.5,26.,0.,7.5,25.3,0.,0.,      163P    313
0.0933333333333331,-3.14159265358979,3.14159265358979;               163P    314
128,1,1,1,1,0,0,1,0,0,-0.751,-0.751,0.751,0.751,-0.751,-0.751,       165P    315
0.751,0.751,1.,1.,1.,1.,7.51,25.3,-7.51,-7.51,25.3,-7.51,7.51,       165P    316
25.3,7.51,-7.51,25.3,7.51,-0.751,0.751,-0.751,0.751;                 165P    317
128,1,8,1,2,0,1,0,0,1,0.,0.,0.0933333333333334,                      167P    318
0.0933333333333334,-3.14159265358979,-3.14159265358979,              167P    319
-3.14159265358979,-1.5707963267949,-1.5707963267949,0.,0.,           167P    320
1.5707963267949,1.5707963267949,3.14159265358979,                    167P    321
3.14159265358979,3.14159265358979,1.,1.,0.707106781186548,           167P    322
0.707106781186548,1.,1.,0.707106781186548,0.707106781186548,1.,      167P    323
1.,0.707106781186548,0.707106781186548,1.,1.,0.707106781186548,      167P    324
0.707106781186548,1.,1.,-7.5,18.5,0.,-7.5,19.2,0.,-7.5,18.5,7.5,     167P    325
-7.5,19.2,7.5,0.,18.5,7.5,0.,19.2,7.5,7.5,18.5,7.5,7.5,19.2,7.5,     167P    326
7.5,18.5,0.,7.5,19.2,0.,7.5,18.5,-7.5,7.5,19.2,-7.5,0.,18.5,         167P    327
-7.5,0.,19.2,-7.5,-7.5,18.5,-7.5,-7.5,19.2,-7.5,-7.5,18.5,0.,        167P    328
-7.5,19.2,0.,0.,0.0933333333333334,-3.14159265358979,                167P    329
3.14159265358979;                                                    167P    330
128,1,1,1,1,0,0,1,0,0,-0.751,-0.751,0.751,0.751,-0.751,-0.751,       169P    331
0.751,0.751,1.,1.,1.,1.,-7.51,19.2,-7.51,7.51,19.2,-7.51,-7.51,      169P    332
19.2,7.51,7.51,19.2,7.51,-0.751,0.751,-0.751,0.751;                  169P    333
128,1,1,1,1,0,0,1,0,0,-0.876,-0.876,0.876,0.876,-0.876,-0.876,       171P    334
0.876,0.876,1.,1.,1.,1.,-8.76,18.5,-8.76,8.76,18.5,-8.76,-8.76,      171P    335
18.5,8.76,8.76,18.5,8.76,-0.876,0.876,-0.876,0.876;                  171P    336
128,2,8,2,2,0,1,0,0,1,0.,0.,0.,1.5707963267949,1.5707963267949,      173P    337
1.5707963267949,-3.14159265358979,-3.14159265358979,                 173P    338
-3.14159265358979,-1.5707963267949,-1.5707963267949,0.,0.,           173P    339
1.5707963267949,1.5707963267949,3.14159265358979,                    173P    340
3.14159265358979,3.14159265358979,1.,0.707106781186549,1.,           173P    341
0.707106781186548,0.500000000000001,0.707106781186548,1.,            173P    342
0.707106781186549,1.,0.707106781186548,0.500000000000001,            173P    343
0.707106781186548,1.,0.707106781186549,1.,0.707106781186548,         173P    344
0.500000000000001,0.707106781186548,1.,0.707106781186549,1.,         173P    345
0.707106781186548,0.500000000000001,0.707106781186548,1.,            173P    346
0.707106781186549,1.,0.,17.,-20.5,0.,22.,-20.5,0.,22.,-15.5,         173P    347
-20.5,17.,-20.5,-20.5,22.,-20.5,-15.5,22.,-15.5,-20.5,17.,0.,        173P    348
-20.5,22.,0.,-15.5,22.,0.,-20.5,17.,20.5,-20.5,22.,20.5,-15.5,       173P    349
22.,15.5,0.,17.,20.5,0.,22.,20.5,0.,22.,15.5,20.5,17.,20.5,20.5,     173P    350
22.,20.5,15.5,22.,15.5,20.5,17.,0.,20.5,22.,0.,15.5,22.,0.,20.5,     173P    351
17.,-20.5,20.5,22.,-20.5,15.5,22.,-15.5,0.,17.,-20.5,0.,22.,         173P    352
-20.5,0.,22.,-15.5,0.,1.5707963267949,-3.14159265358979,             173P    353
3.14159265358979;                                                    173P    354
128,1,8,1,2,0,1,0,0,1,0.439024390243902,0.439024390243902,           175P    355
1.21951219512195,1.21951219512195,-3.14159265358979,                 175P    356
-3.14159265358979,-3.14159265358979,-1.5707963267949,                175P    357
-1.5707963267949,0.,0.,1.5707963267949,1.5707963267949,              175P    358
3.14159265358979,3.14159265358979,3.14159265358979,1.,1.,            175P    359
0.707106781186548,0.707106781186548,1.,1.,0.707106781186548,         175P    360
0.707106781186548,1.,1.,0.707106781186548,0.707106781186548,1.,      175P    361
1.,0.707106781186548,0.707106781186548,1.,1.,20.5,17.,0.,20.5,       175P    362
1.,0.,20.5,17.,20.5,20.5,1.,20.5,0.,17.,20.5,0.,1.,20.5,-20.5,       175P    363
17.,20.5,-20.5,1.,20.5,-20.5,17.,0.,-20.5,1.,0.,-20.5,17.,-20.5,     175P    364
-20.5,1.,-20.5,0.,17.,-20.5,0.,1.,-20.5,20.5,17.,-20.5,20.5,1.,      175P    365
-20.5,20.5,17.,0.,20.5,1.,0.,0.439024390243902,1.21951219512195,     175P    366
-3.14159265358979,3.14159265358979;                                  175P    367
128,2,8,2,2,0,1,0,0,1,-3.14159265358979,-3.14159265358979,           177P    368
-3.14159265358979,-1.5707963267949,-1.5707963267949,                 177P    369
-1.5707963267949,-3.14159265358979,-3.14159265358979,                177P    370
-3.14159265358979,-1.5707963267949,-1.5707963267949,0.,0.,           177P    371
1.5707963267949,1.5707963267949,3.14159265358979,                    177P    372
3.14159265358979,3.14159265358979,1.,0.707106781186541,1.,           177P    373
0.707106781186548,0.499999999999996,0.707106781186548,1.,            177P    374
0.707106781186541,1.,0.707106781186548,0.499999999999996,            177P    375
0.707106781186548,1.,0.707106781186541,1.,0.707106781186548,         177P    376
0.499999999999996,0.707106781186548,1.,0.707106781186541,1.,         177P    377
0.707106781186548,0.499999999999996,0.707106781186548,1.,            177P    378
0.707106781186541,1.,0.,8.32667268468867D-16,-21.5,0.,               177P    379
-1.49795071522904D-16,-20.5,0.,1.,-20.5,-21.5,                       177P    380
8.32667268468867D-16,-21.5,-20.5,-1.49795071522904D-16,-20.5,        177P    381
-20.5,1.,-20.5,-21.5,8.32667268468867D-16,0.,-20.5,                  177P    382
-1.38777878078145D-16,0.,-20.5,1.,0.,-21.5,8.32667268468867D-16,     177P    383
21.5,-20.5,-1.27760684633385D-16,20.5,-20.5,1.,20.5,0.,              177P    384
8.32667268468867D-16,21.5,0.,-1.27760684633385D-16,20.5,0.,1.,       177P    385
20.5,21.5,8.32667268468867D-16,21.5,20.5,-1.27760684633385D-16,      177P    386
20.5,20.5,1.,20.5,21.5,8.32667268468867D-16,0.,20.5,                 177P    387
-1.38777878078145D-16,0.,20.5,1.,0.,21.5,8.32667268468867D-16,       177P    388
-21.5,20.5,-1.49795071522904D-16,-20.5,20.5,1.,-20.5,0.,             177P    389
8.32667268468867D-16,-21.5,0.,-1.49795071522904D-16,-20.5,0.,1.,     177P    390
-20.5,-3.14159265358979,-1.5707963267949,-3.14159265358979,          177P    391
3.14159265358979;                                                    177P    392
128,1,1,1,1,0,0,1,0,0,-2.626,-2.626,2.626,2.626,-2.626,-2.626,       179P    393
2.626,2.626,1.,1.,1.,1.,-26.26,0.,-26.26,26.26,0.,-26.26,-26.26,     179P    394
0.,26.26,26.26,0.,26.26,-2.626,2.626,-2.626,2.626;                   179P    395
128,1,8,1,2,0,1,0,0,1,-0.455284552845528,-0.455284552845528,         181P    396
0.536585365853659,0.536585365853659,-3.14159265358979,               181P    397
-3.14159265358979,-3.14159265358979,-1.5707963267949,                181P    398
-1.5707963267949,0.,0.,1.5707963267949,1.5707963267949,              181P    399
3.14159265358979,3.14159265358979,3.14159265358979,1.,1.,            181P    400
0.707106781186548,0.707106781186548,1.,1.,0.707106781186548,         181P    401
0.707106781186548,1.,1.,0.707106781186548,0.707106781186548,1.,      181P    402
1.,0.707106781186548,0.707106781186548,1.,1.,-6.15,19.2,0.,          181P    403
-6.15,25.3,0.,-6.15,19.2,6.15,-6.15,25.3,6.15,0.,19.2,6.15,0.,       181P    404
25.3,6.15,6.15,19.2,6.15,6.15,25.3,6.15,6.15,19.2,0.,6.15,25.3,      181P    405
0.,6.15,19.2,-6.15,6.15,25.3,-6.15,0.,19.2,-6.15,0.,25.3,-6.15,      181P    406
-6.15,19.2,-6.15,-6.15,25.3,-6.15,-6.15,19.2,0.,-6.15,25.3,0.,       181P    407
-0.455284552845528,0.536585365853659,-3.14159265358979,              181P    408
3.14159265358979;                                                    181P    409
128,1,8,1,2,0,1,0,0,1,0.,0.,0.0761904761904762,                      183P    410
0.0761904761904762,-3.14159265358979,-3.14159265358979,              183P    411
-3.14159265358979,-1.5707963267949,-1.5707963267949,0.,0.,           183P    412
1.5707963267949,1.5707963267949,3.14159265358979,                    183P    413
3.14159265358979,3.14159265358979,1.,1.,0.707106781186548,           183P    414
0.707106781186548,1.,1.,0.707106781186548,0.707106781186548,1.,      183P    415
1.,0.707106781186548,0.707106781186548,1.,1.,0.707106781186548,      183P    416
0.707106781186548,1.,1.,26.25,2.,0.,26.25,0.,0.,26.25,2.,-26.25,     183P    417
26.25,0.,-26.25,0.,2.,-26.25,0.,0.,-26.25,-26.25,2.,-26.25,          183P    418
-26.25,0.,-26.25,-26.25,2.,0.,-26.25,0.,0.,-26.25,2.,26.25,          183P    419
-26.25,0.,26.25,0.,2.,26.25,0.,0.,26.25,26.25,2.,26.25,26.25,0.,     183P    420
26.25,26.25,2.,0.,26.25,0.,0.,0.,0.0761904761904762,                 183P    421
-3.14159265358979,3.14159265358979;                                  183P    422
128,1,1,1,1,0,0,1,0,0,-2.626,-2.626,2.626,2.626,-2.626,-2.626,       185P    423
2.626,2.626,1.,1.,1.,1.,26.26,2.,-26.26,-26.26,2.,-26.26,26.26,      185P    424
2.,26.26,-26.26,2.,26.26,-2.626,2.626,-2.626,2.626;                  185P    425
128,1,8,1,2,0,1,0,0,1,0.0851063829787235,0.0851063829787235,         187P    426
1.02127659574468,1.02127659574468,-3.14159265358979,                 187P    427
-3.14159265358979,-3.14159265358979,-1.5707963267949,                187P    428
-1.5707963267949,0.,0.,1.5707963267949,1.5707963267949,              187P    429
3.14159265358979,3.14159265358979,3.14159265358979,1.,1.,            187P    430
0.707106781186548,0.707106781186548,1.,1.,0.707106781186548,         187P    431
0.707106781186548,1.,1.,0.707106781186548,0.707106781186548,1.,      187P    432
1.,0.707106781186548,0.707106781186548,1.,1.,23.5,2.,0.,23.5,        187P    433
24.,0.,23.5,2.,23.5,23.5,24.,23.5,0.,2.,23.5,0.,24.,23.5,-23.5,      187P    434
2.,23.5,-23.5,24.,23.5,-23.5,2.,0.,-23.5,24.,0.,-23.5,2.,-23.5,      187P    435
-23.5,24.,-23.5,0.,2.,-23.5,0.,24.,-23.5,23.5,2.,-23.5,23.5,24.,     187P    436
-23.5,23.5,2.,0.,23.5,24.,0.,0.0851063829787235,                     187P    437
1.02127659574468,-3.14159265358979,3.14159265358979;                 187P    438
128,1,8,1,2,0,1,0,0,1,0.,0.,0.0761904761904763,                      189P    439
0.0761904761904763,-3.14159265358979,-3.14159265358979,              189P    440
-3.14159265358979,-1.5707963267949,-1.5707963267949,0.,0.,           189P    441
1.5707963267949,1.5707963267949,3.14159265358979,                    189P    442
3.14159265358979,3.14159265358979,1.,1.,0.707106781186548,           189P    443
0.707106781186548,1.,1.,0.707106781186548,0.707106781186548,1.,      189P    444
1.,0.707106781186548,0.707106781186548,1.,1.,0.707106781186548,      189P    445
0.707106781186548,1.,1.,26.25,24.,0.,26.25,26.,0.,26.25,24.,         189P    446
26.25,26.25,26.,26.25,0.,24.,26.25,0.,26.,26.25,-26.25,24.,          189P    447
26.25,-26.25,26.,26.25,-26.25,24.,0.,-26.25,26.,0.,-26.25,24.,       189P    448
-26.25,-26.25,26.,-26.25,0.,24.,-26.25,0.,26.,-26.25,26.25,24.,      189P    449
-26.25,26.25,26.,-26.25,26.25,24.,0.,26.25,26.,0.,0.,                189P    450
0.0761904761904763,-3.14159265358979,3.14159265358979;               189P    451
128,1,1,1,1,0,0,1,0,0,-2.626,-2.626,2.626,2.626,-2.626,-2.626,       191P    452
2.626,2.626,1.,1.,1.,1.,26.26,26.,-26.26,-26.26,26.,-26.26,          191P    453
26.26,26.,26.26,-26.26,26.,26.26,-2.626,2.626,-2.626,2.626;          191P    454
128,1,1,1,1,0,0,1,0,0,-2.626,-2.626,2.626,2.626,-2.626,-2.626,       193P    455
2.626,2.626,1.,1.,1.,1.,-26.26,24.,-26.26,26.26,24.,-26.26,          193P    456
-26.26,24.,26.26,26.26,24.,26.26,-2.626,2.626,-2.626,2.626;          193P    457
502,23,13.5196960070847,22.,1.65568524405216D-15,8.75,18.5,0.,       195P    458
-8.75,18.5,-1.07156594925393D-15,15.5,22.,-1.8982025386784D-15,      195P    459
0.,22.,-15.5,7.5,26.,-9.18485099360515D-16,7.5,25.3,                 195P    460
-9.18485099360515D-16,-6.15,25.3,7.53157781475622D-16,-7.5,18.5,     195P    461
-9.18485099360515D-16,-7.5,19.2,-9.18485099360515D-16,-6.15,         195P    462
19.2,-7.53157781475622D-16,0.,17.,-20.5,20.5,17.,                    195P    463
2.51052593825207D-15,20.5,1.,-2.51052593825207D-15,0.,1.,-20.5,      195P    464
21.5,0.,2.63299061816681D-15,0.,8.32667268468867D-16,-21.5,          195P    465
26.25,0.,-3.2146978477618D-15,26.25,2.,-3.2146978477618D-15,         195P    466
23.5,2.,-2.87791997799628D-15,23.5,24.,-2.87791997799628D-15,        195P    467
26.25,24.,-3.2146978477618D-15,26.25,26.,-3.2146978477618D-15;       195P    468
504,33,93,195,1,195,1,95,195,1,195,2,97,195,3,195,2,99,195,2,        197P    469
195,3,101,195,4,195,5,103,195,5,195,4,105,195,6,195,6,107,195,6,     197P    470
195,7,109,195,7,195,7,111,195,8,195,8,113,195,9,195,9,115,195,9,     197P    471
195,10,117,195,10,195,10,119,195,11,195,11,121,195,5,195,12,123,     197P    472
195,12,195,13,125,195,13,195,12,127,195,14,195,15,129,195,14,        197P    473
195,13,131,195,15,195,14,133,195,16,195,17,135,195,17,195,15,        197P    474
137,195,17,195,16,139,195,18,195,18,141,195,11,195,8,143,195,19,     197P    475
195,19,145,195,19,195,18,147,195,20,195,20,149,195,20,195,21,        197P    476
151,195,21,195,21,153,195,22,195,22,155,195,22,195,23,157,195,       197P    477
23,195,23;                                                           197P    478
406,1,5HBody2;                                                       199P    479
314,97.2549019607843,96.8627450980392,92.9411764705882,17HNylon      201P    480
6-6 (White);                                                         201P    481
314,62.7450980392157,62.7450980392157,62.7450980392157,13HSteel      203P    482
- Satin;                                                             203P    483
S      1G      3D    204P    483                                        T      1
