                                                                        S      1
,,21HFront Wheel Washer v3,21HFront Wheel Washer_v3,7Hunknown,7Hunknown,G      1
32,38,7,99,15,,1.,2,2HMM,1,0.08,15H20250603.171428,0.01,10000.,7HunknownG      2
,7Hunknown,11,0,15H20250522.031539;                                     G      3
     186       1                                                00000000D      1
     186             -65       1       0                               0D      2
     514       2                                                00010000D      3
     514                       1       1                               0D      4
     510       3                                                00010000D      5
     510             -65       1       1                               0D      6
     510       4                                                00010000D      7
     510             -65       1       1                               0D      8
     510       5                                                00010000D      9
     510             -65       1       1                               0D     10
     510       6                                                00010000D     11
     510             -65       1       1                               0D     12
     510       7                                                00010000D     13
     510             -65       1       1                               0D     14
     508       8                                                00010000D     15
     508                       2       1                               0D     16
     508      10                                                00010000D     17
     508                       1       1                               0D     18
     508      11                                                00010000D     19
     508                       1       1                               0D     20
     508      12                                                00010000D     21
     508                       1       1                               0D     22
     508      13                                                00010000D     23
     508                       1       1                               0D     24
     508      14                                                00010000D     25
     508                       1       1                               0D     26
     508      15                                                00010000D     27
     508                       1       1                               0D     28
     126      16                                                00010000D     29
     126       0               7       0                               0D     30
     126      23                                                00010000D     31
     126       0               4       0                               0D     32
     126      27                                                00010000D     33
     126       0               7       0                               0D     34
     126      34                                                00010000D     35
     126       0               8       0                               0D     36
     126      42                                                00010000D     37
     126       0               9       0                               0D     38
     126      51                                                00010000D     39
     126       0               3       0                               0D     40
     126      54                                                00010000D     41
     126       0              13       0                               0D     42
     126      67                                                00010000D     43
     126       0              13       0                               0D     44
     126      80                                                00010000D     45
     126       0               4       0                               0D     46
     126      84                                                00010000D     47
     126       0              13       0                               0D     48
     128      97                                                00010000D     49
     128       0     -65      23       0                               0D     50
     128     120                                                00010000D     51
     128       0     -65      21       0                               0D     52
     128     141                                                00010000D     53
     128       0     -65      23       0                               0D     54
     128     164                                                00010000D     55
     128       0     -65       6       0                               0D     56
     128     170                                                00010000D     57
     128       0     -65       6       0                               0D     58
     502     176                                                00010000D     59
     502                       6       1                               0D     60
     504     182                                                00010001D     61
     504                       3       1                               0D     62
     406     185                                                00000000D     63
     406                       1      15                               0D     64
     314     186                                                00000200D     65
     314                       2       0                               0D     66
     314     188                                                00000200D     67
     314                       2       0                               0D     68
186,3,1,0,0,1,63;                                                      1P      1
514,5,5,1,7,1,9,1,11,1,13,1;                                           3P      2
510,49,1,1,15;                                                         5P      3
510,51,1,1,17;                                                         7P      4
510,53,1,1,19;                                                         9P      5
510,55,2,1,21,23;                                                     11P      6
510,57,2,1,25,27;                                                     13P      7
508,6,0,61,1,1,0,0,61,2,1,0,0,61,3,0,0,0,61,4,0,0,0,61,2,0,0,0,       15P      8
61,5,1,0;                                                             15P      9
508,5,0,61,3,1,0,0,61,6,1,0,0,61,7,1,0,0,61,6,0,0,0,61,4,1,0;         17P     10
508,4,0,61,8,1,0,0,61,9,1,0,0,61,10,0,0,0,61,9,0,0;                   19P     11
508,1,0,61,8,0,0;                                                     21P     12
508,2,0,61,1,0,0,0,61,5,0,0;                                          23P     13
508,1,0,61,10,1,0;                                                    25P     14
508,1,0,61,7,0,0;                                                     27P     15
126,4,2,0,0,0,0,0.,0.,0.,1.5707963267949,1.5707963267949,             29P     16
3.14159265358979,3.14159265358979,3.14159265358979,1.,                29P     17
0.707106781186551,1.,0.707106781186544,1.,67.3792555308078,           29P     18
-11.7755218907348,18.013,69.6205180054794,-9.56209863260522,          29P     19
18.013,69.6205180054794,-9.56209863260522,21.163,                     29P     20
69.6205180054794,-9.56209863260522,24.313,67.3792555308079,           29P     21
-11.7755218907348,24.313,0.,3.14159265358979,0.,0.,0.;                29P     22
126,1,1,0,0,1,0,-0.422806116585772,-0.422806116585772,                31P     23
0.422806116585771,0.422806116585771,1.,1.,67.3792555308079,           31P     24
-11.7755218907348,24.313,66.3603781580181,-10.7438296404892,          31P     25
22.863,-0.422806116585772,0.422806116585771,0.,0.,0.;                 31P     26
126,4,2,0,0,0,0,0.,0.,0.,1.5707963267949,1.5707963267949,             33P     27
3.1415926535898,3.1415926535898,3.1415926535898,1.,                   33P     28
0.707106781186549,1.,0.707106781186552,1.,66.3603781580181,           33P     29
-10.7438296404892,19.463,67.569948382444,-9.54928375514938,           33P     30
19.463,67.569948382444,-9.54928375514938,21.163,67.569948382444,      33P     31
-9.54928375514939,22.863,66.3603781580181,-10.7438296404892,          33P     32
22.863,0.,3.1415926535898,0.,0.,0.;                                   33P     33
126,4,2,0,0,0,0,3.1415926535898,3.1415926535898,3.1415926535898,      35P     34
4.71238898038469,4.71238898038469,6.28318530717959,                   35P     35
6.28318530717959,6.28318530717959,1.,0.707106781186547,1.,            35P     36
0.707106781186547,1.,66.3603781580181,-10.7438296404892,22.863,       35P     37
65.1508079335921,-11.9383755258289,22.863,65.1508079335921,           35P     38
-11.9383755258289,21.163,65.1508079335921,-11.9383755258289,          35P     39
19.463,66.3603781580181,-10.7438296404892,19.463,                     35P     40
3.1415926535898,6.28318530717959,0.,0.,0.;                            35P     41
126,4,2,0,0,0,0,3.14159265358979,3.14159265358979,                    37P     42
3.14159265358979,4.71238898038469,4.71238898038469,                   37P     43
6.28318530717959,6.28318530717959,6.28318530717959,1.,                37P     44
0.70710678118655,1.,0.707106781186543,1.,67.3792555308079,            37P     45
-11.7755218907348,24.313,65.1379930561363,-13.9889451488644,          37P     46
24.313,65.1379930561363,-13.9889451488644,21.163,                     37P     47
65.1379930561363,-13.9889451488644,18.013,67.3792555308078,           37P     48
-11.7755218907348,18.013,3.14159265358979,6.28318530717959,0.,        37P     49
0.,0.;                                                                37P     50
126,1,1,0,0,1,0,-5.02941176470588,-5.02941176470588,-5.,-5.,1.,       39P     51
1.,66.3603781580181,-10.7438296404892,22.863,66.3252444555081,        39P     52
-10.7082540456531,22.863,-5.02941176470588,-5.,0.,0.,0.;              39P     53
126,8,2,0,1,0,0,-3.14159265358979,-3.14159265358979,                  41P     54
-3.14159265358979,-1.5707963267949,-1.5707963267949,0.,0.,            41P     55
1.5707963267949,1.5707963267949,3.14159265358979,                     41P     56
3.14159265358979,3.14159265358979,1.,0.707106781186559,1.,            41P     57
0.707106781186548,1.,0.707106781186557,1.,0.707106781186553,1.,       41P     58
66.3252444555081,-10.7082540456531,22.863,67.534814679934,            41P     59
-9.51370816031332,22.863,67.534814679934,-9.51370816031332,           41P     60
21.163,67.534814679934,-9.51370816031332,19.463,                      41P     61
66.3252444555081,-10.7082540456531,19.463,65.1156742310821,           41P     62
-11.9027999309929,19.463,65.1156742310821,-11.9027999309929,          41P     63
21.163,65.1156742310821,-11.9027999309929,22.863,                     41P     64
66.3252444555081,-10.7082540456531,22.863,-3.14159265358979,          41P     65
3.14159265358979,0.,0.,0.;                                            41P     66
126,8,2,0,1,0,0,-3.14159265358979,-3.14159265358979,                  43P     67
-3.14159265358979,-1.5707963267949,-1.5707963267949,0.,0.,            43P     68
1.5707963267949,1.5707963267949,3.14159265358979,                     43P     69
3.14159265358979,3.14159265358979,1.,0.707106781186549,1.,            43P     70
0.707106781186548,1.,0.707106781186548,1.,0.707106781186548,1.,       43P     71
70.7589370402333,-8.43782015228543,21.163,70.7589370402333,           43P     72
-8.43782015228544,16.413,67.3792555308078,-11.7755218907348,          43P     73
16.413,63.9995740213824,-15.1132236291842,16.413,                     43P     74
63.9995740213824,-15.1132236291842,21.163,63.9995740213825,           43P     75
-15.1132236291842,25.913,67.3792555308079,-11.7755218907348,          43P     76
25.913,70.7589370402333,-8.43782015228544,25.913,                     43P     77
70.7589370402333,-8.43782015228543,21.163,-3.14159265358979,          43P     78
3.14159265358979,0.,0.,0.;                                            43P     79
126,1,1,0,0,1,0,-0.315789473684211,-0.315789473684211,                45P     80
4.1899906382793D-16,4.1899906382793D-16,1.,1.,70.7589370402333,       45P     81
-8.43782015228543,21.163,69.7049259649335,-7.37055230720372,          45P     82
21.163,-0.315789473684211,4.1899906382793D-16,0.,0.,0.;               45P     83
126,8,2,0,1,0,0,-3.14159265358979,-3.14159265358979,                  47P     84
-3.14159265358979,-1.5707963267949,-1.5707963267949,0.,0.,            47P     85
1.5707963267949,1.5707963267949,3.14159265358979,                     47P     86
3.14159265358979,3.14159265358979,1.,0.707106781186549,1.,            47P     87
0.707106781186548,1.,0.707106781186551,1.,0.707106781186549,1.,       47P     88
69.7049259649335,-7.37055230720372,21.163,69.7049259649335,           47P     89
-7.37055230720373,16.413,66.325244455508,-10.7082540456531,           47P     90
16.413,62.9455629460826,-14.0459557841025,16.413,                     47P     91
62.9455629460826,-14.0459557841025,21.163,62.9455629460826,           47P     92
-14.0459557841025,25.913,66.3252444555081,-10.7082540456531,          47P     93
25.913,69.7049259649335,-7.37055230720373,25.913,                     47P     94
69.7049259649335,-7.37055230720372,21.163,-3.14159265358979,          47P     95
3.14159265358979,0.,0.,0.;                                            47P     96
128,1,8,1,2,0,1,0,0,1,-0.422806116585772,-0.422806116585772,          49P     97
0.422806116585771,0.422806116585771,-3.14159265358979,                49P     98
-3.14159265358979,-3.14159265358979,-1.5707963267949,                 49P     99
-1.5707963267949,0.,0.,1.5707963267949,1.5707963267949,               49P    100
3.14159265358979,3.14159265358979,3.14159265358979,1.,1.,             49P    101
0.707106781186548,0.707106781186548,1.,1.,0.707106781186548,          49P    102
0.707106781186548,1.,1.,0.707106781186548,0.707106781186548,1.,       49P    103
1.,0.707106781186548,0.707106781186548,1.,1.,66.3603781580181,        49P    104
-10.7438296404892,22.863,67.3792555308079,-11.7755218907348,          49P    105
24.313,65.1508079335921,-11.9383755258289,22.863,                     49P    106
65.1379930561363,-13.9889451488644,24.313,65.1508079335921,           49P    107
-11.9383755258289,21.163,65.1379930561363,-13.9889451488644,          49P    108
21.163,65.1508079335921,-11.9383755258289,19.463,                     49P    109
65.1379930561363,-13.9889451488644,18.013,66.3603781580181,           49P    110
-10.7438296404892,19.463,67.3792555308079,-11.7755218907348,          49P    111
18.013,67.569948382444,-9.54928375514938,19.463,                      49P    112
69.6205180054794,-9.56209863260523,18.013,67.569948382444,            49P    113
-9.54928375514939,21.163,69.6205180054794,-9.56209863260522,          49P    114
21.163,67.569948382444,-9.54928375514939,22.863,                      49P    115
69.6205180054794,-9.56209863260523,24.313,66.3603781580181,           49P    116
-10.7438296404892,22.863,67.3792555308079,-11.7755218907348,          49P    117
24.313,-0.422806116585772,0.422806116585771,-3.14159265358979,        49P    118
3.14159265358979;                                                     49P    119
128,1,8,1,2,0,1,0,0,1,-5.02941176470588,-5.02941176470588,-5.,        51P    120
-5.,-3.14159265358979,-3.14159265358979,-3.14159265358979,            51P    121
-1.5707963267949,-1.5707963267949,0.,0.,1.5707963267949,              51P    122
1.5707963267949,3.14159265358979,3.14159265358979,                    51P    123
3.14159265358979,1.,1.,0.707106781186548,0.707106781186548,1.,        51P    124
1.,0.707106781186548,0.707106781186548,1.,1.,0.707106781186548,       51P    125
0.707106781186548,1.,1.,0.707106781186548,0.707106781186548,1.,       51P    126
1.,66.3252444555081,-10.7082540456531,22.863,66.3603781580181,        51P    127
-10.7438296404892,22.863,65.1156742310821,-11.9027999309929,          51P    128
22.863,65.1508079335921,-11.9383755258289,22.863,                     51P    129
65.1156742310821,-11.9027999309929,21.163,65.1508079335921,           51P    130
-11.9383755258289,21.163,65.1156742310821,-11.9027999309929,          51P    131
19.463,65.1508079335921,-11.9383755258289,19.463,                     51P    132
66.3252444555081,-10.7082540456531,19.463,66.3603781580181,           51P    133
-10.7438296404892,19.463,67.534814679934,-9.51370816031332,           51P    134
19.463,67.569948382444,-9.54928375514939,19.463,67.534814679934,      51P    135
-9.51370816031332,21.163,67.569948382444,-9.54928375514939,           51P    136
21.163,67.534814679934,-9.51370816031333,22.863,67.569948382444,      51P    137
-9.54928375514939,22.863,66.3252444555081,-10.7082540456531,          51P    138
22.863,66.3603781580181,-10.7438296404892,22.863,                     51P    139
-5.02941176470588,-5.,-3.14159265358979,3.14159265358979;             51P    140
128,1,8,1,2,0,1,0,0,1,-4.1899906382793D-16,-4.1899906382793D-16,      53P    141
0.315789473684211,0.315789473684211,-3.14159265358979,                53P    142
-3.14159265358979,-3.14159265358979,-1.5707963267949,                 53P    143
-1.5707963267949,0.,0.,1.5707963267949,1.5707963267949,               53P    144
3.14159265358979,3.14159265358979,3.14159265358979,1.,1.,             53P    145
0.707106781186548,0.707106781186548,1.,1.,0.707106781186548,          53P    146
0.707106781186548,1.,1.,0.707106781186548,0.707106781186548,1.,       53P    147
1.,0.707106781186548,0.707106781186548,1.,1.,69.7049259649335,        53P    148
-7.37055230720372,21.163,70.7589370402333,-8.43782015228543,          53P    149
21.163,69.7049259649335,-7.37055230720372,16.413,                     53P    150
70.7589370402333,-8.43782015228543,16.413,66.325244455508,            53P    151
-10.7082540456531,16.413,67.3792555308078,-11.7755218907348,          53P    152
16.413,62.9455629460826,-14.0459557841025,16.413,                     53P    153
63.9995740213824,-15.1132236291842,16.413,62.9455629460826,           53P    154
-14.0459557841025,21.163,63.9995740213824,-15.1132236291842,          53P    155
21.163,62.9455629460826,-14.0459557841025,25.913,                     53P    156
63.9995740213825,-15.1132236291842,25.913,66.3252444555081,           53P    157
-10.7082540456531,25.913,67.3792555308079,-11.7755218907348,          53P    158
25.913,69.7049259649335,-7.37055230720372,25.913,                     53P    159
70.7589370402333,-8.43782015228543,25.913,69.7049259649335,           53P    160
-7.37055230720372,21.163,70.7589370402333,-8.43782015228543,          53P    161
21.163,-4.1899906382793D-16,0.315789473684211,-3.14159265358979,      53P    162
3.14159265358979;                                                     53P    163
128,1,1,1,1,0,0,1,0,0,-0.476000000000001,-0.476000000000001,          55P    164
0.476000000000001,0.476000000000001,-0.476,-0.476,0.476,0.476,        55P    165
1.,1.,1.,1.,63.9924589024152,-15.1202503696862,16.403,                55P    166
70.7660521592005,-8.43079341178343,16.403,63.9924589024152,           55P    167
-15.1202503696862,25.923,70.7660521592005,-8.43079341178342,          55P    168
25.923,-0.476000000000001,0.476000000000001,-0.476,0.476;             55P    169
128,1,1,1,1,0,0,1,0,0,-0.476000000000001,-0.476000000000001,          57P    170
0.476,0.476,-0.476,-0.476,0.476,0.476,1.,1.,1.,1.,                    57P    171
69.7120410839007,-7.36352556670172,16.403,62.9384478271154,           57P    172
-14.0529825246045,16.403,69.7120410839007,-7.36352556670171,          57P    173
25.923,62.9384478271154,-14.0529825246045,25.923,                     57P    174
-0.476000000000001,0.476,-0.476,0.476;                                57P    175
502,7,67.3792555308079,-11.7755218907348,18.013,                      59P    176
67.3792555308079,-11.7755218907348,24.313,66.3603781580181,           59P    177
-10.7438296404892,22.863,66.3603781580181,-10.7438296404892,          59P    178
19.463,66.3252444555081,-10.7082540456531,22.863,                     59P    179
70.7589370402333,-8.43782015228543,21.163,69.7049259649335,           59P    180
-7.37055230720372,21.163;                                             59P    181
504,10,29,59,1,59,2,31,59,2,59,3,33,59,4,59,3,35,59,3,59,4,37,        61P    182
59,2,59,1,39,59,3,59,5,41,59,5,59,5,43,59,6,59,6,45,59,6,59,7,        61P    183
47,59,7,59,7;                                                         61P    184
406,1,5HBody2;                                                        63P    185
314,97.2549019607843,96.8627450980392,92.9411764705882,17HNylon       65P    186
6-6 (White);                                                          65P    187
314,62.7450980392157,62.7450980392157,62.7450980392157,13HSteel       67P    188
- Satin;                                                              67P    189
S      1G      3D     68P    189                                        T      1
