                                                                        S      1
,,20HMotor Connector 2 v2,20HMotor Connector 2_v2,7Hunknown,7Hunknown,  G      1
32,38,7,99,15,,1.,2,2HMM,1,0.08,15H20250603.171438,0.01,10000.,7HunknownG      2
,7Hunknown,11,0,15H20250529.233412;                                     G      3
     186       1                                                00000000D      1
     186            -211       1       0                               0D      2
     514       2                                                00010000D      3
     514                       2       1                               0D      4
     510       4                                                00010000D      5
     510            -211       1       1                               0D      6
     510       5                                                00010000D      7
     510            -211       1       1                               0D      8
     510       6                                                00010000D      9
     510            -211       1       1                               0D     10
     510       7                                                00010000D     11
     510            -211       1       1                               0D     12
     510       8                                                00010000D     13
     510            -211       1       1                               0D     14
     510       9                                                00010000D     15
     510            -211       1       1                               0D     16
     510      10                                                00010000D     17
     510            -211       1       1                               0D     18
     510      11                                                00010000D     19
     510            -211       1       1                               0D     20
     510      12                                                00010000D     21
     510            -211       1       1                               0D     22
     510      13                                                00010000D     23
     510            -211       1       1                               0D     24
     510      14                                                00010000D     25
     510            -211       1       1                               0D     26
     510      15                                                00010000D     27
     510            -211       1       1                               0D     28
     510      16                                                00010000D     29
     510            -211       1       1                               0D     30
     510      17                                                00010000D     31
     510            -211       1       1                               0D     32
     510      18                                                00010000D     33
     510            -211       1       1                               0D     34
     510      19                                                00010000D     35
     510            -211       1       1                               0D     36
     510      20                                                00010000D     37
     510            -211       1       1                               0D     38
     508      21                                                00010000D     39
     508                       1       1                               0D     40
     508      22                                                00010000D     41
     508                       1       1                               0D     42
     508      23                                                00010000D     43
     508                       1       1                               0D     44
     508      24                                                00010000D     45
     508                       1       1                               0D     46
     508      25                                                00010000D     47
     508                       1       1                               0D     48
     508      26                                                00010000D     49
     508                       1       1                               0D     50
     508      27                                                00010000D     51
     508                       1       1                               0D     52
     508      28                                                00010000D     53
     508                       1       1                               0D     54
     508      29                                                00010000D     55
     508                       1       1                               0D     56
     508      30                                                00010000D     57
     508                       2       1                               0D     58
     508      32                                                00010000D     59
     508                       1       1                               0D     60
     508      33                                                00010000D     61
     508                       2       1                               0D     62
     508      35                                                00010000D     63
     508                       2       1                               0D     64
     508      37                                                00010000D     65
     508                       1       1                               0D     66
     508      38                                                00010000D     67
     508                       1       1                               0D     68
     508      39                                                00010000D     69
     508                       1       1                               0D     70
     508      40                                                00010000D     71
     508                       1       1                               0D     72
     508      41                                                00010000D     73
     508                       1       1                               0D     74
     508      42                                                00010000D     75
     508                       1       1                               0D     76
     508      43                                                00010000D     77
     508                       1       1                               0D     78
     508      44                                                00010000D     79
     508                       1       1                               0D     80
     508      45                                                00010000D     81
     508                       1       1                               0D     82
     508      46                                                00010000D     83
     508                       2       1                               0D     84
     126      48                                                00010000D     85
     126       0              12       0                               0D     86
     126      60                                                00010000D     87
     126       0               3       0                               0D     88
     126      63                                                00010000D     89
     126       0              12       0                               0D     90
     126      75                                                00010000D     91
     126       0              10       0                               0D     92
     126      85                                                00010000D     93
     126       0               6       0                               0D     94
     126      91                                                00010000D     95
     126       0               4       0                               0D     96
     126      95                                                00010000D     97
     126       0               3       0                               0D     98
     126      98                                                00010000D     99
     126       0               3       0                               0D    100
     126     101                                                00010000D    101
     126       0               3       0                               0D    102
     126     104                                                00010000D    103
     126       0               4       0                               0D    104
     126     108                                                00010000D    105
     126       0               3       0                               0D    106
     126     111                                                00010000D    107
     126       0               3       0                               0D    108
     126     114                                                00010000D    109
     126       0               4       0                               0D    110
     126     118                                                00010000D    111
     126       0               3       0                               0D    112
     126     121                                                00010000D    113
     126       0               3       0                               0D    114
     126     124                                                00010000D    115
     126       0               4       0                               0D    116
     126     128                                                00010000D    117
     126       0               3       0                               0D    118
     126     131                                                00010000D    119
     126       0               3       0                               0D    120
     126     134                                                00010000D    121
     126       0               4       0                               0D    122
     126     138                                                00010000D    123
     126       0               3       0                               0D    124
     126     141                                                00010000D    125
     126       0               3       0                               0D    126
     126     144                                                00010000D    127
     126       0               4       0                               0D    128
     126     148                                                00010000D    129
     126       0               3       0                               0D    130
     126     151                                                00010000D    131
     126       0               5       0                               0D    132
     126     156                                                00010000D    133
     126       0              10       0                               0D    134
     126     166                                                00010000D    135
     126       0               7       0                               0D    136
     126     173                                                00010000D    137
     126       0               8       0                               0D    138
     126     181                                                00010000D    139
     126       0               4       0                               0D    140
     126     185                                                00010000D    141
     126       0               7       0                               0D    142
     126     192                                                00010000D    143
     126       0               8       0                               0D    144
     126     200                                                00010000D    145
     126       0               4       0                               0D    146
     126     204                                                00010000D    147
     126       0               4       0                               0D    148
     126     208                                                00010000D    149
     126       0               3       0                               0D    150
     126     211                                                00010000D    151
     126       0               4       0                               0D    152
     126     215                                                00010000D    153
     126       0               3       0                               0D    154
     126     218                                                00010000D    155
     126       0               7       0                               0D    156
     126     225                                                00010000D    157
     126       0               7       0                               0D    158
     126     232                                                00010000D    159
     126       0               3       0                               0D    160
     126     235                                                00010000D    161
     126       0               3       0                               0D    162
     126     238                                                00010000D    163
     126       0               3       0                               0D    164
     126     241                                                00010000D    165
     126       0               3       0                               0D    166
     126     244                                                00010000D    167
     126       0               7       0                               0D    168
     126     251                                                00010000D    169
     126       0               7       0                               0D    170
     128     258                                                00010000D    171
     128       0    -211      20       0                               0D    172
     128     278                                                00010000D    173
     128       0    -211       5       0                               0D    174
     128     283                                                00010000D    175
     128       0    -211       6       0                               0D    176
     128     289                                                00010000D    177
     128       0    -211       6       0                               0D    178
     128     295                                                00010000D    179
     128       0    -211       6       0                               0D    180
     128     301                                                00010000D    181
     128       0    -211       6       0                               0D    182
     128     307                                                00010000D    183
     128       0    -211       6       0                               0D    184
     128     313                                                00010000D    185
     128       0    -211       6       0                               0D    186
     128     319                                                00010000D    187
     128       0    -211       6       0                               0D    188
     128     325                                                00010000D    189
     128       0    -211      21       0                               0D    190
     128     346                                                00010000D    191
     128       0    -211      21       0                               0D    192
     128     367                                                00010000D    193
     128       0    -211       6       0                               0D    194
     128     373                                                00010000D    195
     128       0    -211      12       0                               0D    196
     128     385                                                00010000D    197
     128       0    -211       6       0                               0D    198
     128     391                                                00010000D    199
     128       0    -211      12       0                               0D    200
     128     403                                                00010000D    201
     128       0    -211       7       0                               0D    202
     128     410                                                00010000D    203
     128       0    -211       7       0                               0D    204
     502     417                                                00010000D    205
     502                      21       1                               0D    206
     504     438                                                00010001D    207
     504                      12       1                               0D    208
     406     450                                                00000000D    209
     406                       1      15                               0D    210
     314     451                                                00000200D    211
     314                       2       0                               0D    212
     314     453                                                00000200D    213
     314                       2       0                               0D    214
186,3,1,0,0,1,209;                                                     1P      1
514,17,5,1,7,1,9,1,11,1,13,1,15,1,17,1,19,1,21,1,23,1,25,1,27,1,       3P      2
29,1,31,1,33,1,35,1,37,1;                                              3P      3
510,171,1,1,39;                                                        5P      4
510,173,2,1,41,43;                                                     7P      5
510,175,1,1,45;                                                        9P      6
510,177,1,1,47;                                                       11P      7
510,179,1,1,49;                                                       13P      8
510,181,1,1,51;                                                       15P      9
510,183,1,1,53;                                                       17P     10
510,185,1,1,55;                                                       19P     11
510,187,2,1,57,59;                                                    21P     12
510,189,1,1,61;                                                       23P     13
510,191,1,1,63;                                                       25P     14
510,193,1,1,65;                                                       27P     15
510,195,1,1,67;                                                       29P     16
510,197,1,1,69;                                                       31P     17
510,199,1,1,71;                                                       33P     18
510,201,3,1,73,75,77;                                                 35P     19
510,203,3,1,79,81,83;                                                 37P     20
508,4,0,207,1,0,0,0,207,2,1,0,0,207,3,1,0,0,207,2,0,0;                39P     21
508,1,0,207,3,0,0;                                                    41P     22
508,2,0,207,4,0,0,0,207,5,0,0;                                        43P     23
508,4,0,207,6,0,0,0,207,7,1,0,0,207,8,1,0,0,207,9,0,0;                45P     24
508,4,0,207,10,0,0,0,207,11,1,0,0,207,12,1,0,0,207,7,0,0;             47P     25
508,4,0,207,13,0,0,0,207,14,1,0,0,207,15,1,0,0,207,11,0,0;            49P     26
508,4,0,207,16,0,0,0,207,17,1,0,0,207,18,1,0,0,207,14,0,0;            51P     27
508,4,0,207,19,0,0,0,207,20,1,0,0,207,21,1,0,0,207,17,0,0;            53P     28
508,4,0,207,22,0,0,0,207,9,1,0,0,207,23,1,0,0,207,20,0,0;             55P     29
508,6,0,207,23,0,0,0,207,8,0,0,0,207,12,0,0,0,207,15,0,0,0,207,       57P     30
18,0,0,0,207,21,0,0;                                                  57P     31
508,2,0,207,24,0,0,0,207,25,0,0;                                      59P     32
508,6,0,207,26,0,0,0,207,27,0,0,0,207,28,1,0,0,207,25,1,0,0,207,      61P     33
24,1,0,0,207,28,0,0;                                                  61P     34
508,6,0,207,29,0,0,0,207,30,0,0,0,207,31,1,0,0,207,5,1,0,0,207,       63P     35
4,1,0,0,207,31,0,0;                                                   63P     36
508,4,0,207,32,1,0,0,207,33,1,0,0,207,34,0,0,0,207,35,0,0;            65P     37
508,4,0,207,36,1,0,0,207,35,1,0,0,207,37,0,0,0,207,38,0,0;            67P     38
508,4,0,207,39,1,0,0,207,38,1,0,0,207,40,0,0,0,207,41,0,0;            69P     39
508,4,0,207,42,1,0,0,207,41,1,0,0,207,43,0,0,0,207,33,0,0;            71P     40
508,4,0,207,43,1,0,0,207,40,1,0,0,207,37,1,0,0,207,34,1,0;            73P     41
508,2,0,207,26,1,0,0,207,27,1,0;                                      75P     42
508,2,0,207,29,1,0,0,207,30,1,0;                                      77P     43
508,4,0,207,42,0,0,0,207,32,0,0,0,207,36,0,0,0,207,39,0,0;            79P     44
508,1,0,207,1,1,0;                                                    81P     45
508,6,0,207,6,1,0,0,207,22,1,0,0,207,19,1,0,0,207,16,1,0,0,207,       83P     46
13,1,0,0,207,10,1,0;                                                  83P     47
126,8,2,0,1,0,0,-3.14159265358979,-3.14159265358979,                  85P     48
-3.14159265358979,-1.5707963267949,-1.5707963267949,0.,0.,            85P     49
1.5707963267949,1.5707963267949,3.14159265358979,                     85P     50
3.14159265358979,3.14159265358979,1.,0.707106781186548,1.,            85P     51
0.707106781186548,1.,0.707106781186548,1.,0.707106781186548,1.,       85P     52
15.6000000000004,0.,2.07393572552029D-14,15.6000000000004,0.,         85P     53
-3.09999999999998,12.5000000000004,0.,-3.09999999999998,              85P     54
9.4000000000004,0.,-3.09999999999998,9.4000000000004,0.,              85P     55
2.11189977629385D-14,9.4000000000004,0.,3.10000000000002,             85P     56
12.5000000000004,0.,3.10000000000002,15.6000000000004,0.,             85P     57
3.10000000000002,15.6000000000004,0.,2.14986382706742D-14,            85P     58
-3.14159265358979,3.14159265358979,0.,0.,0.;                          85P     59
126,1,1,0,0,1,0,0.,0.,0.161290322580645,0.161290322580645,1.,1.,      87P     60
15.6000000000004,0.,2.11189977629385D-14,15.6000000000004,0.5,        87P     61
2.11189977629385D-14,0.,0.161290322580645,0.,0.,0.;                   87P     62
126,8,2,0,1,0,0,-3.14159265358979,-3.14159265358979,                  89P     63
-3.14159265358979,-1.5707963267949,-1.5707963267949,0.,0.,            89P     64
1.5707963267949,1.5707963267949,3.14159265358979,                     89P     65
3.14159265358979,3.14159265358979,1.,0.707106781186548,1.,            89P     66
0.707106781186548,1.,0.707106781186548,1.,0.707106781186548,1.,       89P     67
15.6000000000004,0.5,2.07393572552029D-14,15.6000000000004,0.5,       89P     68
-3.09999999999998,12.5000000000004,0.5,-3.09999999999998,             89P     69
9.4000000000004,0.5,-3.09999999999998,9.4000000000004,0.5,            89P     70
2.11189977629385D-14,9.4000000000004,0.5,3.10000000000002,            89P     71
12.5000000000004,0.5,3.10000000000002,15.6000000000004,0.5,           89P     72
3.10000000000002,15.6000000000004,0.5,2.14986382706742D-14,           89P     73
-3.14159265358979,3.14159265358979,0.,0.,0.;                          89P     74
126,6,2,0,0,0,0,-1.5707963267949,-1.5707963267949,                    91P     75
-1.5707963267949,-1.48029736616688D-16,-1.48029736616688D-16,         91P     76
1.5707963267949,1.5707963267949,3.14159265358979,                     91P     77
3.14159265358979,3.14159265358979,1.,0.707106781186548,1.,            91P     78
0.707106781186546,1.,0.707106781186548,1.,14.650001058125,0.5,        91P     79
4.23249970446198D-7,14.650001058125,0.5,2.15000042324997,             91P     80
12.500001058125,0.5,2.15000042324997,10.350001058125,0.5,             91P     81
2.15000042324997,10.350001058125,0.5,4.23249970923593D-7,             91P     82
10.350001058125,0.5,-2.14999957675003,12.500001058125,0.5,            91P     83
-2.14999957675003,-1.5707963267949,3.14159265358979,0.,0.,0.;         91P     84
126,2,2,0,0,0,0,3.14159265358979,3.14159265358979,                    93P     85
3.14159265358979,4.71238898038469,4.71238898038469,                   93P     86
4.71238898038469,1.,0.707106781186545,1.,12.500001058125,0.5,         93P     87
-2.14999957675003,14.650001058125,0.5,-2.14999957675003,              93P     88
14.650001058125,0.5,4.23249970396995D-7,3.14159265358979,             93P     89
4.71238898038469,0.,0.,0.;                                            93P     90
126,1,1,0,0,1,0,-0.396937476868976,-0.396937476868976,                95P     91
-0.0591875693930456,-0.0591875693930456,1.,1.,-10.8112504626199,      95P     92
0.,2.92499999999979,-9.12250092524029,0.,-2.02199368359857D-13,       95P     93
-0.396937476868976,-0.0591875693930456,0.,0.,0.;                      95P     94
126,1,1,0,0,1,0,0.,0.,0.4,0.4,1.,1.,-10.8112504626199,0.,             97P     95
2.92499999999979,-10.8112504626199,4.,2.92499999999979,0.,0.4,        97P     96
0.,0.,0.;                                                             97P     97
126,1,1,0,0,1,0,-0.337749907475931,-0.337749907475931,0.,0.,1.,       99P     98
1.,-10.8112504626199,4.,2.92499999999979,-9.12250092524029,4.,        99P     99
-2.02060590481778D-13,-0.337749907475931,0.,0.,0.,0.;                 99P    100
126,1,1,0,0,1,0,0.,0.,0.4,0.4,1.,1.,-9.12250092524029,0.,            101P    101
-2.02060590481778D-13,-9.12250092524029,4.,                          101P    102
-2.02060590481778D-13,0.,0.4,0.,0.,0.;                               101P    103
126,1,1,0,0,1,0,-0.709437476868988,-0.709437476868988,               103P    104
-0.371687569393057,-0.371687569393057,1.,1.,-14.1887495373793,       103P    105
0.,2.92499999999979,-10.8112504626199,0.,2.92499999999979,           103P    106
-0.709437476868988,-0.371687569393057,0.,0.,0.;                      103P    107
126,1,1,0,0,1,0,0.,0.,0.4,0.4,1.,1.,-14.1887495373793,0.,            105P    108
2.92499999999979,-14.1887495373793,4.,2.92499999999979,0.,0.4,       105P    109
0.,0.,0.;                                                            105P    110
126,1,1,0,0,1,0,-0.337749907475931,-0.337749907475931,0.,0.,1.,      107P    111
1.,-14.1887495373793,4.,2.92499999999979,-10.8112504626199,4.,       107P    112
2.92499999999979,-0.337749907475931,0.,0.,0.,0.;                     107P    113
126,1,1,0,0,1,0,-0.396937476868994,-0.396937476868994,               109P    114
-0.059187569393063,-0.059187569393063,1.,1.,-15.8774990747589,       109P    115
0.,-2.1316282072803D-13,-14.1887495373793,0.,2.92499999999979,       109P    116
-0.396937476868994,-0.059187569393063,0.,0.,0.;                      109P    117
126,1,1,0,0,1,0,0.,0.,0.4,0.4,1.,1.,-15.8774990747589,0.,            111P    118
-2.1316282072803D-13,-15.8774990747589,4.,-2.1316282072803D-13,      111P    119
0.,0.4,0.,0.,0.;                                                     111P    120
126,1,1,0,0,1,0,-0.337749907475931,-0.337749907475931,0.,0.,1.,      113P    121
1.,-15.8774990747589,4.,-2.1316282072803D-13,-14.1887495373793,      113P    122
4.,2.92499999999979,-0.337749907475931,0.,0.,0.,0.;                  113P    123
126,1,1,0,0,1,0,0.228062523131011,0.228062523131011,                 115P    124
0.565812430606941,0.565812430606941,1.,1.,-14.1887495373792,0.,      115P    125
-2.92500000000021,-15.8774990747589,0.,-2.1316282072803D-13,         115P    126
0.228062523131011,0.565812430606941,0.,0.,0.;                        115P    127
126,1,1,0,0,1,0,0.,0.,0.4,0.4,1.,1.,-14.1887495373792,0.,            117P    128
-2.92500000000021,-14.1887495373792,4.,-2.92500000000021,0.,0.4,     117P    129
0.,0.,0.;                                                            117P    130
126,1,1,0,0,1,0,-0.33774990747593,-0.33774990747593,0.,0.,1.,1.,     119P    131
-14.1887495373792,4.,-2.92500000000021,-15.8774990747589,4.,         119P    132
-2.1316282072803D-13,-0.33774990747593,0.,0.,0.,0.;                  119P    133
126,1,1,0,0,1,0,0.540562523131023,0.540562523131023,                 121P    134
0.878312430606953,0.878312430606953,1.,1.,-10.8112504626199,0.,      121P    135
-2.9250000000002,-14.1887495373792,0.,-2.92500000000021,             121P    136
0.540562523131023,0.878312430606953,0.,0.,0.;                        121P    137
126,1,1,0,0,1,0,0.,0.,0.4,0.4,1.,1.,-10.8112504626199,0.,            123P    138
-2.9250000000002,-10.8112504626199,4.,-2.9250000000002,0.,0.4,       123P    139
0.,0.,0.;                                                            123P    140
126,1,1,0,0,1,0,-0.337749907475931,-0.337749907475931,0.,0.,1.,      125P    141
1.,-10.8112504626199,4.,-2.9250000000002,-14.1887495373792,4.,       125P    142
-2.92500000000021,-0.337749907475931,0.,0.,0.,0.;                    125P    143
126,1,1,0,0,1,0,0.228062523131029,0.228062523131029,                 127P    144
0.56581243060696,0.56581243060696,1.,1.,-9.12250092524029,0.,        127P    145
-2.02338146237935D-13,-10.8112504626199,0.,-2.9250000000002,         127P    146
0.228062523131029,0.56581243060696,0.,0.,0.;                         127P    147
126,1,1,0,0,1,0,-0.337749907475931,-0.337749907475931,0.,0.,1.,      129P    148
1.,-9.12250092524029,4.,-2.02060590481778D-13,-10.8112504626199,     129P    149
4.,-2.9250000000002,-0.337749907475931,0.,0.,0.,0.;                  129P    150
126,2,2,0,0,0,0,1.5707963267949,1.5707963267949,1.5707963267949,     131P    151
3.14159265358979,3.14159265358979,3.14159265358979,1.,               131P    152
0.70710678118655,1.,-14.200003174375,4.,4.232499733724D-7,           131P    153
-14.200003174375,4.,-1.69999957675003,-12.500003174375,4.,           131P    154
-1.69999957675003,1.5707963267949,3.14159265358979,0.,0.,0.;         131P    155
126,6,2,0,0,0,0,3.14159265358979,3.14159265358979,                   133P    156
3.14159265358979,4.71238898038469,4.71238898038469,                  133P    157
6.28318530717959,6.28318530717959,7.85398163397448,                  133P    158
7.85398163397448,7.85398163397448,1.,0.70710678118655,1.,            133P    159
0.70710678118655,1.,0.707106781186549,1.,-12.500003174375,4.,        133P    160
-1.69999957675003,-10.800003174375,4.,-1.69999957675003,             133P    161
-10.800003174375,4.,4.23249973333496D-7,-10.800003174375,4.,         133P    162
1.70000042324997,-12.500003174375,4.,1.70000042324997,               133P    163
-14.200003174375,4.,1.70000042324997,-14.200003174375,4.,            133P    164
4.23249974166256D-7,3.14159265358979,7.85398163397448,0.,0.,0.;      133P    165
126,4,2,0,0,0,0,0.,0.,0.,1.5707963267949,1.5707963267949,            135P    166
3.14159265358979,3.14159265358979,3.14159265358979,1.,               135P    167
0.70710678118655,1.,0.70710678118655,1.,-12.500003174375,6.,         135P    168
1.70000042324997,-14.200003174375,6.,1.70000042324997,               135P    169
-14.200003174375,6.,4.23249973749876D-7,-14.200003174375,6.,         135P    170
-1.69999957675003,-12.500003174375,6.,-1.69999957675003,0.,          135P    171
3.14159265358979,0.,0.,0.;                                           135P    172
126,4,2,0,0,0,0,3.14159265358979,3.14159265358979,                   137P    173
3.14159265358979,4.71238898038469,4.71238898038469,                  137P    174
6.28318530717959,6.28318530717959,6.28318530717959,1.,               137P    175
0.70710678118655,1.,0.70710678118655,1.,-12.500003174375,6.,         137P    176
-1.69999957675003,-10.800003174375,6.,-1.69999957675003,             137P    177
-10.800003174375,6.,4.23249973333496D-7,-10.800003174375,6.,         137P    178
1.70000042324997,-12.500003174375,6.,1.70000042324997,               137P    179
3.14159265358979,6.28318530717959,0.,0.,0.;                          137P    180
126,1,1,0,0,1,0,-2.35294117647059,-2.35294117647059,                 139P    181
-1.17647058823529,-1.17647058823529,1.,1.,-12.500003174375,6.,       139P    182
-1.69999957675003,-12.500003174375,4.,-1.69999957675003,             139P    183
-2.35294117647059,-1.17647058823529,0.,0.,0.;                        139P    184
126,4,2,0,0,0,0,0.,0.,0.,1.5707963267949,1.5707963267949,            141P    185
3.14159265358979,3.14159265358979,3.14159265358979,1.,               141P    186
0.707106781186548,1.,0.707106781186548,1.,12.500001058125,6.,        141P    187
2.15000042324997,10.350001058125,6.,2.15000042324997,                141P    188
10.350001058125,6.,4.23249970923593D-7,10.350001058125,6.,           141P    189
-2.14999957675003,12.500001058125,6.,-2.14999957675003,0.,           141P    190
3.14159265358979,0.,0.,0.;                                           141P    191
126,4,2,0,0,0,0,3.14159265358979,3.14159265358979,                   143P    192
3.14159265358979,4.71238898038469,4.71238898038469,                  143P    193
6.28318530717959,6.28318530717959,6.28318530717959,1.,               143P    194
0.707106781186545,1.,0.707106781186548,1.,12.500001058125,6.,        143P    195
-2.14999957675003,14.650001058125,6.,-2.14999957675003,              143P    196
14.650001058125,6.,4.23249970396995D-7,14.650001058125,6.,           143P    197
2.15000042324997,12.500001058125,6.,2.15000042324997,                143P    198
3.14159265358979,6.28318530717959,0.,0.,0.;                          143P    199
126,1,1,0,0,1,0,-2.09302325581395,-2.09302325581395,                 145P    200
0.465116279069768,0.465116279069768,1.,1.,12.500001058125,6.,        145P    201
-2.14999957675003,12.500001058125,0.5,-2.14999957675003,             145P    202
-2.09302325581395,0.465116279069768,0.,0.,0.;                        145P    203
126,1,1,0,0,1,0,9.41469124882133D-14,9.41469124882133D-14,2.5,       147P    204
2.5,1.,1.,-12.4999999999991,0.,4.50000000000002,                     147P    205
12.4999999999999,0.,4.50000000000002,9.41469124882133D-14,2.5,       147P    206
0.,0.,0.;                                                            147P    207
126,1,1,0,0,1,0,0.,0.,0.6,0.6,1.,1.,12.4999999999999,0.,             149P    208
4.50000000000002,12.4999999999999,6.,4.50000000000002,0.,0.6,0.,     149P    209
0.,0.;                                                               149P    210
126,1,1,0,0,1,0,9.41469124882133D-14,9.41469124882133D-14,2.5,       151P    211
2.5,1.,1.,-12.4999999999991,6.,4.50000000000002,                     151P    212
12.4999999999999,6.,4.50000000000002,9.41469124882133D-14,2.5,       151P    213
0.,0.,0.;                                                            151P    214
126,1,1,0,0,1,0,0.,0.,0.6,0.6,1.,1.,-12.4999999999991,0.,            153P    215
4.49999999999957,-12.4999999999991,6.,4.49999999999957,0.,0.6,       153P    216
0.,0.,0.;                                                            153P    217
126,4,2,0,0,0,0,0.,0.,0.,1.5707963267949,1.5707963267949,            155P    218
3.14159265358979,3.14159265358979,3.14159265358979,1.,               155P    219
0.707106781186548,1.,0.707106781186547,1.,-12.5000000000001,0.,      155P    220
-4.49999999999998,-16.9999999999998,0.,-4.49999999999951,            155P    221
-16.9999999999994,0.,2.63105500183567D-13,-16.9999999999989,0.,      155P    222
4.50000000000004,-12.4999999999991,0.,4.49999999999957,0.,           155P    223
3.14159265358979,0.,0.,0.;                                           155P    224
126,4,2,0,0,0,0,0.,0.,0.,1.5707963267949,1.5707963267949,            157P    225
3.14159265358979,3.14159265358979,3.14159265358979,1.,               157P    226
0.707106781186548,1.,0.707106781186547,1.,-12.5000000000001,6.,      157P    227
-4.49999999999998,-16.9999999999998,6.,-4.49999999999951,            157P    228
-16.9999999999994,6.,2.63105500183567D-13,-16.9999999999989,6.,      157P    229
4.50000000000004,-12.4999999999991,6.,4.49999999999957,0.,           157P    230
3.14159265358979,0.,0.,0.;                                           157P    231
126,1,1,0,0,1,0,0.,0.,0.6,0.6,1.,1.,-12.5000000000001,0.,            159P    232
-4.49999999999998,-12.5000000000001,6.,-4.49999999999998,0.,0.6,     159P    233
0.,0.,0.;                                                            159P    234
126,1,1,0,0,1,0,0.,0.,2.5,2.5,1.,1.,12.4999999999999,0.,             161P    235
-4.49999999999998,-12.5000000000001,0.,-4.49999999999998,0.,2.5,     161P    236
0.,0.,0.;                                                            161P    237
126,1,1,0,0,1,0,0.,0.,2.5,2.5,1.,1.,12.4999999999999,6.,             163P    238
-4.49999999999998,-12.5000000000001,6.,-4.49999999999998,0.,2.5,     163P    239
0.,0.,0.;                                                            163P    240
126,1,1,0,0,1,0,0.,0.,0.6,0.6,1.,1.,12.5000000000009,0.,             165P    241
-4.49999999999997,12.5000000000009,6.,-4.49999999999997,0.,0.6,      165P    242
0.,0.,0.;                                                            165P    243
126,4,2,0,0,0,0,0.,0.,0.,1.5707963267949,1.5707963267949,            167P    244
3.14159265358979,3.14159265358979,3.14159265358979,1.,               167P    245
0.707106781186548,1.,0.70710678118655,1.,12.4999999999999,0.,        167P    246
4.50000000000002,16.9999999999999,0.,4.50000000000049,               167P    247
17.0000000000004,0.,4.94349551783063D-13,17.0000000000009,0.,        167P    248
-4.4999999999995,12.5000000000009,0.,-4.49999999999997,0.,           167P    249
3.14159265358979,0.,0.,0.;                                           167P    250
126,4,2,0,0,0,0,0.,0.,0.,1.5707963267949,1.5707963267949,            169P    251
3.14159265358979,3.14159265358979,3.14159265358979,1.,               169P    252
0.707106781186548,1.,0.70710678118655,1.,12.4999999999999,6.,        169P    253
4.50000000000002,16.9999999999999,6.,4.50000000000049,               169P    254
17.0000000000004,6.,4.94349551783063D-13,17.0000000000009,6.,        169P    255
-4.4999999999995,12.5000000000009,6.,-4.49999999999997,0.,           169P    256
3.14159265358979,0.,0.,0.;                                           169P    257
128,1,8,1,2,0,1,0,0,1,0.,0.,0.161290322580645,0.161290322580645,     171P    258
-3.14159265358979,-3.14159265358979,-3.14159265358979,               171P    259
-1.5707963267949,-1.5707963267949,0.,0.,1.5707963267949,             171P    260
1.5707963267949,3.14159265358979,3.14159265358979,                   171P    261
3.14159265358979,1.,1.,0.707106781186548,0.707106781186548,1.,       171P    262
1.,0.707106781186548,0.707106781186548,1.,1.,0.707106781186548,      171P    263
0.707106781186548,1.,1.,0.707106781186548,0.707106781186548,1.,      171P    264
1.,15.6000000000004,0.,2.11189977629385D-14,15.6000000000004,        171P    265
0.5,2.11189977629385D-14,15.6000000000004,0.,-3.09999999999998,      171P    266
15.6000000000004,0.5,-3.09999999999998,12.5000000000004,0.,          171P    267
-3.09999999999998,12.5000000000004,0.5,-3.09999999999998,            171P    268
9.4000000000004,0.,-3.09999999999998,9.4000000000004,0.5,            171P    269
-3.09999999999998,9.4000000000004,0.,2.11189977629385D-14,           171P    270
9.4000000000004,0.5,2.11189977629385D-14,9.4000000000004,0.,         171P    271
3.10000000000002,9.4000000000004,0.5,3.10000000000002,               171P    272
12.5000000000004,0.,3.10000000000002,12.5000000000004,0.5,           171P    273
3.10000000000002,15.6000000000004,0.,3.10000000000002,               171P    274
15.6000000000004,0.5,3.10000000000002,15.6000000000004,0.,           171P    275
2.11189977629385D-14,15.6000000000004,0.5,2.11189977629385D-14,      171P    276
0.,0.161290322580645,-3.14159265358979,3.14159265358979;             171P    277
128,1,1,1,1,0,0,1,0,0,-0.311,-0.311,0.311,0.311,-0.311,-0.311,       173P    278
0.311,0.311,1.,1.,1.,1.,9.3900000000004,0.5,-3.10999999999998,       173P    279
15.6100000000004,0.5,-3.10999999999998,9.39000000000041,0.5,         173P    280
3.11000000000002,15.6100000000004,0.5,3.11000000000002,-0.311,       173P    281
0.311,-0.311,0.311;                                                  173P    282
128,1,1,1,1,0,0,1,0,0,-0.001,-0.001,0.338749907475931,               175P    283
0.338749907475931,-0.001,-0.001,0.401,0.401,1.,1.,1.,1.,             175P    284
-9.11750092524029,-0.01,-0.00866025403804704,-10.8162504626199,      175P    285
-0.01,2.93366025403764,-9.11750092524029,4.01,                       175P    286
-0.00866025403804704,-10.8162504626199,4.01,2.93366025403764,        175P    287
-0.001,0.338749907475931,-0.001,0.401;                               175P    288
128,1,1,1,1,0,0,1,0,0,-0.001,-0.001,0.338749907475931,               177P    289
0.338749907475931,-0.001,-0.001,0.401,0.401,1.,1.,1.,1.,             177P    290
-10.8012504626199,-0.01,2.92499999999979,-14.1987495373793,          177P    291
-0.01,2.92499999999979,-10.8012504626199,4.01,2.92499999999979,      177P    292
-14.1987495373793,4.01,2.92499999999979,-0.001,                      177P    293
0.338749907475931,-0.001,0.401;                                      177P    294
128,1,1,1,1,0,0,1,0,0,-0.001,-0.001,0.338749907475931,               179P    295
0.338749907475931,-0.001,-0.001,0.401,0.401,1.,1.,1.,1.,             179P    296
-14.1837495373793,-0.01,2.93366025403763,-15.8824990747589,          179P    297
-0.01,-0.00866025403805756,-14.1837495373793,4.01,                   179P    298
2.93366025403763,-15.8824990747589,4.01,-0.00866025403805756,        179P    299
-0.001,0.338749907475931,-0.001,0.401;                               179P    300
128,1,1,1,1,0,0,1,0,0,-0.001,-0.001,0.338749907475931,               181P    301
0.338749907475931,-0.001,-0.001,0.401,0.401,1.,1.,1.,1.,             181P    302
-15.8824990747589,-0.01,0.00866025403763182,-14.1837495373792,       181P    303
-0.01,-2.93366025403805,-15.8824990747589,4.01,                      181P    304
0.00866025403763182,-14.1837495373792,4.01,-2.93366025403805,        181P    305
-0.001,0.338749907475931,-0.001,0.401;                               181P    306
128,1,1,1,1,0,0,1,0,0,-0.001,-0.001,0.338749907475931,               183P    307
0.338749907475931,-0.001,-0.001,0.401,0.401,1.,1.,1.,1.,             183P    308
-14.1987495373792,-0.01,-2.92500000000021,-10.8012504626199,         183P    309
-0.01,-2.9250000000002,-14.1987495373792,4.01,-2.92500000000021,     183P    310
-10.8012504626199,4.01,-2.9250000000002,-0.001,                      183P    311
0.338749907475931,-0.001,0.401;                                      183P    312
128,1,1,1,1,0,0,1,0,0,-0.001,-0.001,0.338749907475931,               185P    313
0.338749907475931,-0.001,-0.001,0.401,0.401,1.,1.,1.,1.,             185P    314
-10.8162504626199,-0.01,-2.93366025403805,-9.11750092524029,         185P    315
-0.01,0.00866025403764233,-10.8162504626199,4.01,                    185P    316
-2.93366025403805,-9.11750092524029,4.01,0.00866025403764233,        185P    317
-0.001,0.338749907475931,-0.001,0.401;                               185P    318
128,1,1,1,1,0,0,1,0,0,-0.338749907475931,-0.338749907475931,         187P    319
0.338749907475931,0.338749907475931,-0.2935,-0.2935,0.2935,          187P    320
0.2935,1.,1.,1.,1.,-15.8874990747589,4.,-2.93500000000021,           187P    321
-9.11250092524029,4.,-2.93500000000021,-15.8874990747589,4.,         187P    322
2.93499999999979,-9.11250092524029,4.,2.93499999999979,              187P    323
-0.338749907475931,0.338749907475931,-0.2935,0.2935;                 187P    324
128,1,8,1,2,0,1,0,0,1,-2.35294117647059,-2.35294117647059,           189P    325
-1.17647058823529,-1.17647058823529,-3.14159265358979,               189P    326
-3.14159265358979,-3.14159265358979,-1.5707963267949,                189P    327
-1.5707963267949,0.,0.,1.5707963267949,1.5707963267949,              189P    328
3.14159265358979,3.14159265358979,3.14159265358979,1.,1.,            189P    329
0.707106781186548,0.707106781186548,1.,1.,0.707106781186548,         189P    330
0.707106781186548,1.,1.,0.707106781186548,0.707106781186548,1.,      189P    331
1.,0.707106781186548,0.707106781186548,1.,1.,-12.500003174375,       189P    332
6.,-1.69999957675003,-12.500003174375,4.,-1.69999957675003,          189P    333
-10.800003174375,6.,-1.69999957675003,-10.800003174375,4.,           189P    334
-1.69999957675003,-10.800003174375,6.,4.23249973645781D-7,           189P    335
-10.800003174375,4.,4.23249973645781D-7,-10.800003174375,6.,         189P    336
1.70000042324997,-10.800003174375,4.,1.70000042324997,               189P    337
-12.500003174375,6.,1.70000042324997,-12.500003174375,4.,            189P    338
1.70000042324997,-14.200003174375,6.,1.70000042324997,               189P    339
-14.200003174375,4.,1.70000042324997,-14.200003174375,6.,            189P    340
4.23249973645781D-7,-14.200003174375,4.,4.23249973645781D-7,         189P    341
-14.200003174375,6.,-1.69999957675003,-14.200003174375,4.,           189P    342
-1.69999957675003,-12.500003174375,6.,-1.69999957675003,             189P    343
-12.500003174375,4.,-1.69999957675003,-2.35294117647059,             189P    344
-1.17647058823529,-3.14159265358979,3.14159265358979;                189P    345
128,1,8,1,2,0,1,0,0,1,-2.09302325581395,-2.09302325581395,           191P    346
0.465116279069768,0.465116279069768,-3.14159265358979,               191P    347
-3.14159265358979,-3.14159265358979,-1.5707963267949,                191P    348
-1.5707963267949,0.,0.,1.5707963267949,1.5707963267949,              191P    349
3.14159265358979,3.14159265358979,3.14159265358979,1.,1.,            191P    350
0.707106781186548,0.707106781186548,1.,1.,0.707106781186548,         191P    351
0.707106781186548,1.,1.,0.707106781186548,0.707106781186548,1.,      191P    352
1.,0.707106781186548,0.707106781186548,1.,1.,12.500001058125,6.,     191P    353
-2.14999957675003,12.500001058125,0.5,-2.14999957675003,             191P    354
14.650001058125,6.,-2.14999957675003,14.650001058125,0.5,            191P    355
-2.14999957675003,14.650001058125,6.,4.23249970791944D-7,            191P    356
14.650001058125,0.5,4.23249970791944D-7,14.650001058125,6.,          191P    357
2.15000042324997,14.650001058125,0.5,2.15000042324997,               191P    358
12.500001058125,6.,2.15000042324997,12.500001058125,0.5,             191P    359
2.15000042324997,10.350001058125,6.,2.15000042324997,                191P    360
10.350001058125,0.5,2.15000042324997,10.350001058125,6.,             191P    361
4.23249970791944D-7,10.350001058125,0.5,4.23249970791944D-7,         191P    362
10.350001058125,6.,-2.14999957675003,10.350001058125,0.5,            191P    363
-2.14999957675003,12.500001058125,6.,-2.14999957675003,              191P    364
12.500001058125,0.5,-2.14999957675003,-2.09302325581395,             191P    365
0.465116279069768,-3.14159265358979,3.14159265358979;                191P    366
128,1,1,1,1,0,0,1,0,0,-0.00100000000009415,-0.00100000000009415,     193P    367
2.50099999999991,2.50099999999991,-0.001,-0.001,0.601,0.601,1.,      193P    368
1.,1.,1.,-12.5100000000001,-0.01,4.50000000000002,                   193P    369
12.5099999999999,-0.01,4.50000000000002,-12.5100000000001,6.01,      193P    370
4.50000000000002,12.5099999999999,6.01,4.50000000000002,             193P    371
-0.00100000000009415,2.50099999999991,-0.001,0.601;                  193P    372
128,1,4,1,2,0,0,0,0,0,0.,0.,1.3333333333334,1.3333333333334,0.,      195P    373
0.,0.,1.5707963267949,1.5707963267949,3.14159265358979,              195P    374
3.14159265358979,3.14159265358979,1.,1.,0.707106781186548,           195P    375
0.707106781186548,1.,1.,0.707106781186548,0.707106781186548,1.,      195P    376
1.,-12.5000000000001,6.,-4.49999999999998,-12.5000000000001,0.,      195P    377
-4.49999999999998,-16.9999999999998,6.,-4.49999999999951,            195P    378
-16.9999999999998,0.,-4.49999999999951,-16.9999999999994,6.,         195P    379
2.63381045713375D-13,-16.9999999999994,0.,2.63381045713375D-13,      195P    380
-16.9999999999989,6.,4.50000000000004,-16.9999999999989,0.,          195P    381
4.50000000000004,-12.4999999999991,6.,4.49999999999957,              195P    382
-12.4999999999991,0.,4.49999999999957,0.,1.3333333333334,0.,         195P    383
3.14159265358979;                                                    195P    384
128,1,1,1,1,0,0,1,0,0,-0.00100000000009481,-0.00100000000009481,     197P    385
2.501,2.501,-0.001,-0.001,0.601,0.601,1.,1.,1.,1.,                   197P    386
12.5100000000009,-0.01,-4.49999999999998,-12.5100000000001,          197P    387
-0.01,-4.49999999999998,12.5100000000009,6.01,-4.49999999999998,     197P    388
-12.5100000000001,6.01,-4.49999999999998,-0.00100000000009481,       197P    389
2.501,-0.001,0.601;                                                  197P    390
128,1,4,1,2,0,0,0,0,0,0.,0.,1.33333333333334,1.33333333333334,       199P    391
0.,0.,0.,1.5707963267949,1.5707963267949,3.14159265358979,           199P    392
3.14159265358979,3.14159265358979,1.,1.,0.707106781186548,           199P    393
0.707106781186548,1.,1.,0.707106781186548,0.707106781186548,1.,      199P    394
1.,12.4999999999999,6.,4.50000000000002,12.4999999999999,0.,         199P    395
4.50000000000002,16.9999999999999,6.,4.50000000000049,               199P    396
16.9999999999999,0.,4.50000000000049,17.0000000000004,6.,            199P    397
4.94074006253255D-13,17.0000000000004,0.,4.94074006253255D-13,       199P    398
17.0000000000009,6.,-4.4999999999995,17.0000000000009,0.,            199P    399
-4.4999999999995,12.5000000000009,6.,-4.49999999999997,              199P    400
12.5000000000009,0.,-4.49999999999997,0.,1.33333333333334,0.,        199P    401
3.14159265358979;                                                    199P    402
128,1,1,1,1,0,0,1,0,0,-1.70100000000004,-1.70100000000004,           201P    403
1.70100000000004,1.70100000000004,-0.451000000000047,                201P    404
-0.451000000000047,0.451,0.451,1.,1.,1.,1.,-17.0099999999998,6.,     201P    405
4.51000000000049,17.0100000000009,6.,4.51000000000049,               201P    406
-17.0099999999998,6.,-4.50999999999999,17.0100000000009,6.,          201P    407
-4.50999999999999,-1.70100000000004,1.70100000000004,                201P    408
-0.451000000000047,0.451;                                            201P    409
128,1,1,1,1,0,0,1,0,0,-1.70100000000004,-1.70100000000004,           203P    410
1.70100000000004,1.70100000000004,-0.451000000000047,                203P    411
-0.451000000000047,0.451,0.451,1.,1.,1.,1.,17.0100000000009,0.,      203P    412
4.51000000000049,-17.0099999999998,0.,4.51000000000049,              203P    413
17.0100000000009,0.,-4.50999999999999,-17.0099999999998,0.,          203P    414
-4.50999999999999,-1.70100000000004,1.70100000000004,                203P    415
-0.451000000000047,0.451;                                            203P    416
502,30,15.6000000000004,0.,2.07393572552029D-14,                     205P    417
15.6000000000004,0.5,2.07393572651069D-14,14.650001058125,0.5,       205P    418
4.23249970528645D-7,12.500001058125,0.5,-2.14999957675003,           205P    419
-10.8112504626199,0.,2.92499999999979,-9.12250092524029,0.,          205P    420
-2.02060590481778D-13,-10.8112504626199,4.,2.92499999999979,         205P    421
-9.12250092524029,4.,-2.02060590481778D-13,-14.1887495373793,0.,     205P    422
2.92499999999979,-14.1887495373793,4.,2.92499999999979,              205P    423
-15.8774990747589,0.,-2.1316282072803D-13,-15.8774990747589,4.,      205P    424
-2.1316282072803D-13,-14.1887495373792,0.,-2.92500000000021,         205P    425
-14.1887495373792,4.,-2.92500000000021,-10.8112504626199,0.,         205P    426
-2.9250000000002,-10.8112504626199,4.,-2.9250000000002,              205P    427
-14.200003174375,4.,4.23249973437591D-7,-12.500003174375,4.,         205P    428
-1.69999957675003,-12.500003174375,6.,1.70000042324997,              205P    429
-12.500003174375,6.,-1.69999957675003,12.500001058125,6.,            205P    430
2.15000042324997,12.500001058125,6.,-2.14999957675003,               205P    431
-12.4999999999991,0.,4.49999999999957,12.4999999999999,0.,           205P    432
4.50000000000002,12.4999999999999,6.,4.50000000000002,               205P    433
-12.4999999999991,6.,4.49999999999957,-12.5000000000001,0.,          205P    434
-4.49999999999998,-12.5000000000001,6.,-4.49999999999998,            205P    435
12.5000000000009,0.,-4.49999999999997,12.5000000000009,6.,           205P    436
-4.49999999999997;                                                   205P    437
504,43,85,205,1,205,1,87,205,1,205,2,89,205,2,205,2,91,205,3,        207P    438
205,4,93,205,4,205,3,95,205,5,205,6,97,205,5,205,7,99,205,7,205,     207P    439
8,101,205,6,205,8,103,205,9,205,5,105,205,9,205,10,107,205,10,       207P    440
205,7,109,205,11,205,9,111,205,11,205,12,113,205,12,205,10,115,      207P    441
205,13,205,11,117,205,13,205,14,119,205,14,205,12,121,205,15,        207P    442
205,13,123,205,15,205,16,125,205,16,205,14,127,205,6,205,15,129,     207P    443
205,8,205,16,131,205,17,205,18,133,205,18,205,17,135,205,19,205,     207P    444
20,137,205,20,205,19,139,205,20,205,18,141,205,21,205,22,143,        207P    445
205,22,205,21,145,205,22,205,4,147,205,23,205,24,149,205,24,205,     207P    446
25,151,205,26,205,25,153,205,23,205,26,155,205,27,205,23,157,        207P    447
205,28,205,26,159,205,27,205,28,161,205,29,205,27,163,205,30,        207P    448
205,28,165,205,29,205,30,167,205,24,205,29,169,205,25,205,30;        207P    449
406,1,5HBody1;                                                       209P    450
314,97.2549019607843,96.8627450980392,92.9411764705882,17HNylon      211P    451
6-6 (White);                                                         211P    452
314,62.7450980392157,62.7450980392157,62.7450980392157,13HSteel      213P    453
- Satin;                                                             213P    454
S      1G      3D    214P    454                                        T      1
