                                                                        S      1
,,8HTires v5,8HTires_v5,7Hunknown,7Hunknown,32,38,7,99,15,,1.,2,2HMM,1, G      1
0.08,15H20250603.171503,0.01,10000.,7Hunknown,7Hunknown,11,0,15H20250522G      2
.025854;                                                                G      3
     186       1                                                00000000D      1
     186            -119       1       0                               0D      2
     514       2                                                00010000D      3
     514                       1       1                               0D      4
     510       3                                                00010000D      5
     510            -119       1       1                               0D      6
     510       4                                                00010000D      7
     510            -119       1       1                               0D      8
     510       5                                                00010000D      9
     510            -119       1       1                               0D     10
     510       6                                                00010000D     11
     510            -119       1       1                               0D     12
     510       7                                                00010000D     13
     510            -119       1       1                               0D     14
     510       8                                                00010000D     15
     510            -119       1       1                               0D     16
     510       9                                                00010000D     17
     510            -119       1       1                               0D     18
     510      10                                                00010000D     19
     510            -119       1       1                               0D     20
     510      11                                                00010000D     21
     510            -119       1       1                               0D     22
     510      12                                                00010000D     23
     510            -119       1       1                               0D     24
     508      13                                                00010000D     25
     508                       2       1                               0D     26
     508      15                                                00010000D     27
     508                       2       1                               0D     28
     508      17                                                00010000D     29
     508                       1       1                               0D     30
     508      18                                                00010000D     31
     508                       1       1                               0D     32
     508      19                                                00010000D     33
     508                       2       1                               0D     34
     508      21                                                00010000D     35
     508                       1       1                               0D     36
     508      22                                                00010000D     37
     508                       1       1                               0D     38
     508      23                                                00010000D     39
     508                       1       1                               0D     40
     508      24                                                00010000D     41
     508                       1       1                               0D     42
     508      25                                                00010000D     43
     508                       1       1                               0D     44
     508      26                                                00010000D     45
     508                       1       1                               0D     46
     508      27                                                00010000D     47
     508                       1       1                               0D     48
     508      28                                                00010000D     49
     508                       1       1                               0D     50
     508      29                                                00010000D     51
     508                       1       1                               0D     52
     126      30                                                00010000D     53
     126       0               5       0                               0D     54
     126      35                                                00010000D     55
     126       0               3       0                               0D     56
     126      38                                                00010000D     57
     126       0               5       0                               0D     58
     126      43                                                00010000D     59
     126       0               8       0                               0D     60
     126      51                                                00010000D     61
     126       0               7       0                               0D     62
     126      58                                                00010000D     63
     126       0               3       0                               0D     64
     126      61                                                00010000D     65
     126       0               7       0                               0D     66
     126      68                                                00010000D     67
     126       0               5       0                               0D     68
     126      73                                                00010000D     69
     126       0              10       0                               0D     70
     126      83                                                00010000D     71
     126       0               4       0                               0D     72
     126      87                                                00010000D     73
     126       0               5       0                               0D     74
     126      92                                                00010000D     75
     126       0               8       0                               0D     76
     126     100                                                00010000D     77
     126       0              10       0                               0D     78
     126     110                                                00010000D     79
     126       0              10       0                               0D     80
     126     120                                                00010000D     81
     126       0              10       0                               0D     82
     126     130                                                00010000D     83
     126       0               2       0                               0D     84
     126     132                                                00010000D     85
     126       0              10       0                               0D     86
     126     142                                                00010000D     87
     126       0              10       0                               0D     88
     126     152                                                00010000D     89
     126       0               2       0                               0D     90
     126     154                                                00010000D     91
     126       0               3       0                               0D     92
     128     157                                                00010000D     93
     128       0    -119      18       0                               0D     94
     128     175                                                00010000D     95
     128       0    -119      13       0                               0D     96
     128     188                                                00010000D     97
     128       0    -119       3       0                               0D     98
     128     191                                                00010000D     99
     128       0    -119      19       0                               0D    100
     128     210                                                00010000D    101
     128       0    -119       3       0                               0D    102
     128     213                                                00010000D    103
     128       0    -119       3       0                               0D    104
     128     216                                                00010000D    105
     128       0    -119      12       0                               0D    106
     128     228                                                00010000D    107
     128       0    -119       3       0                               0D    108
     128     231                                                00010000D    109
     128       0    -119      13       0                               0D    110
     128     244                                                00010000D    111
     128       0    -119      13       0                               0D    112
     502     257                                                00010000D    113
     502                       7       1                               0D    114
     504     264                                                00010001D    115
     504                       6       1                               0D    116
     406     270                                                00000000D    117
     406                       1      15                               0D    118
     314     271                                                00000200D    119
     314                       2       0                               0D    120
     314     273                                                00000200D    121
     314                       2       0                               0D    122
186,3,1,0,0,1,117;                                                     1P      1
514,10,5,1,7,1,9,1,11,1,13,1,15,1,17,1,19,1,21,1,23,1;                 3P      2
510,93,1,1,25;                                                         5P      3
510,95,1,1,27;                                                         7P      4
510,97,2,1,29,31;                                                      9P      5
510,99,1,1,33;                                                        11P      6
510,101,2,1,35,37;                                                    13P      7
510,103,2,1,39,41;                                                    15P      8
510,105,1,1,43;                                                       17P      9
510,107,2,1,45,47;                                                    19P     10
510,109,1,1,49;                                                       21P     11
510,111,1,1,51;                                                       23P     12
508,6,0,115,1,1,0,0,115,2,1,0,0,115,3,1,0,0,115,4,1,0,0,115,2,0,      25P     13
0,0,115,5,1,0;                                                        25P     14
508,6,0,115,4,0,0,0,115,6,1,0,0,115,7,0,0,0,115,8,0,0,0,115,6,0,      27P     15
0,0,115,3,0,0;                                                        27P     16
508,2,0,115,1,0,0,0,115,5,0,0;                                        29P     17
508,1,0,115,9,1,0;                                                    31P     18
508,6,0,115,8,1,0,0,115,10,1,0,0,115,11,1,0,0,115,12,1,0,0,115,       33P     19
10,0,0,0,115,7,1,0;                                                   33P     20
508,2,0,115,12,0,0,0,115,11,0,0;                                      35P     21
508,1,0,115,13,1,0;                                                   37P     22
508,1,0,115,14,1,0;                                                   39P     23
508,1,0,115,15,0,0;                                                   41P     24
508,4,0,115,14,0,0,0,115,16,1,0,0,115,13,0,0,0,115,16,0,0;            43P     25
508,1,0,115,17,0,0;                                                   45P     26
508,1,0,115,18,0,0;                                                   47P     27
508,4,0,115,17,1,0,0,115,19,1,0,0,115,9,0,0,0,115,19,0,0;             49P     28
508,4,0,115,15,1,0,0,115,20,1,0,0,115,18,1,0,0,115,20,0,0;            51P     29
126,2,2,0,0,0,0,-3.14159265358979,-3.14159265358979,                  53P     30
-3.14159265358979,-1.5707963267949,-1.5707963267949,                  53P     31
-1.5707963267949,1.,0.707106781186547,1.,-28.5,26.,                   53P     32
-3.49024337756996D-15,-28.5,26.,-28.5,1.74512168878498D-15,26.,       53P     33
-28.5,-3.14159265358979,-1.5707963267949,0.,0.,0.;                    53P     34
126,2,2,0,0,0,0,-1.5707963267949,-1.5707963267949,                    55P     35
-1.5707963267949,0.,0.,0.,1.,0.707106781186549,1.,0.,26.,-28.5,       55P     36
0.,26.,-32.5,0.,22.,-32.5,-1.5707963267949,0.,0.,0.,0.;               55P     37
126,2,2,0,0,0,0,1.5707963267949,1.5707963267949,1.5707963267949,      57P     38
3.14159265358979,3.14159265358979,3.14159265358979,1.,                57P     39
0.707106781186548,1.,1.99005104861445D-15,22.,-32.5,-32.5,22.,        57P     40
-32.5,-32.5,22.,-3.9801020972289D-15,1.5707963267949,                 57P     41
3.14159265358979,0.,0.,0.;                                            57P     42
126,6,2,0,0,0,0,-3.14159265358979,-3.14159265358979,                  59P     43
-3.14159265358979,-1.5707963267949,-1.5707963267949,0.,0.,            59P     44
1.5707963267949,1.5707963267949,1.5707963267949,1.,                   59P     45
0.707106781186548,1.,0.707106781186548,1.,0.707106781186548,1.,       59P     46
-32.5,22.,3.9801020972289D-15,-32.5,22.,32.5,                         59P     47
1.99005104861445D-15,22.,32.5,32.5,22.,32.5,32.5,22.,0.,32.5,         59P     48
22.,-32.5,1.99005104861445D-15,22.,-32.5,-3.14159265358979,           59P     49
1.5707963267949,0.,0.,0.;                                             59P     50
126,6,2,0,0,0,0,-1.5707963267949,-1.5707963267949,                    61P     51
-1.5707963267949,0.,0.,1.5707963267949,1.5707963267949,               61P     52
3.14159265358979,3.14159265358979,3.14159265358979,1.,                61P     53
0.707106781186547,1.,0.707106781186547,1.,0.707106781186547,1.,       61P     54
1.74512168878498D-15,26.,-28.5,28.5,26.,-28.5,28.5,26.,0.,28.5,       61P     55
26.,28.5,1.74512168878498D-15,26.,28.5,-28.5,26.,28.5,-28.5,26.,      61P     56
3.49024337756996D-15,-1.5707963267949,3.14159265358979,0.,0.,0.;      61P     57
126,1,1,0,0,1,0,-0.676923076923077,-0.676923076923077,                63P     58
-0.123076923076923,-0.123076923076923,1.,1.,-32.5,22.,0.,-32.5,       63P     59
4.,0.,-0.676923076923077,-0.123076923076923,0.,0.,0.;                 63P     60
126,6,2,0,0,0,0,-1.5707963267949,-1.5707963267949,                    65P     61
-1.5707963267949,0.,0.,1.5707963267949,1.5707963267949,               65P     62
3.14159265358979,3.14159265358979,3.14159265358979,1.,                65P     63
0.707106781186548,1.,0.707106781186548,1.,0.707106781186548,1.,       65P     64
1.99005104861445D-15,4.,-32.5,32.5,4.,-32.5,32.5,4.,0.,32.5,4.,       65P     65
32.5,1.99005104861445D-15,4.,32.5,-32.5,4.,32.5,-32.5,4.,             65P     66
3.9801020972289D-15,-1.5707963267949,3.14159265358979,0.,0.,0.;       65P     67
126,2,2,0,0,0,0,-3.14159265358979,-3.14159265358979,                  67P     68
-3.14159265358979,-1.5707963267949,-1.5707963267949,                  67P     69
-1.5707963267949,1.,0.707106781186548,1.,-32.5,4.,                    67P     70
-3.9801020972289D-15,-32.5,4.,-32.5,1.99005104861445D-15,4.,          67P     71
-32.5,-3.14159265358979,-1.5707963267949,0.,0.,0.;                    67P     72
126,8,2,0,1,0,0,-3.14159265358979,-3.14159265358979,                  69P     73
-3.14159265358979,-1.5707963267949,-1.5707963267949,0.,0.,            69P     74
1.5707963267949,1.5707963267949,3.14159265358979,                     69P     75
3.14159265358979,3.14159265358979,1.,0.707106781186548,1.,            69P     76
0.707106781186548,1.,0.707106781186548,1.,0.707106781186548,1.,       69P     77
26.25,26.,3.2146978477618D-15,26.25,26.,26.25,                        69P     78
-1.6073489238809D-15,26.,26.25,-26.25,26.,26.25,-26.25,26.,0.,        69P     79
-26.25,26.,-26.25,-1.6073489238809D-15,26.,-26.25,26.25,26.,          69P     80
-26.25,26.25,26.,-3.2146978477618D-15,-3.14159265358979,              69P     81
3.14159265358979,0.,0.,0.;                                            69P     82
126,2,2,0,0,0,0,0.,0.,0.,1.5707963267949,1.5707963267949,             71P     83
1.5707963267949,1.,0.707106781186547,1.,0.,4.,-32.5,0.,               71P     84
-5.1104273853354D-16,-32.5,0.,0.,-28.5,0.,1.5707963267949,0.,0.,      71P     85
0.;                                                                   71P     86
126,2,2,0,0,0,0,1.5707963267949,1.5707963267949,1.5707963267949,      73P     87
3.14159265358979,3.14159265358979,3.14159265358979,1.,                73P     88
0.707106781186547,1.,1.74512168878498D-15,0.,-28.5,-28.5,0.,          73P     89
-28.5,-28.5,0.,-3.49024337756996D-15,1.5707963267949,                 73P     90
3.14159265358979,0.,0.,0.;                                            73P     91
126,6,2,0,0,0,0,-3.14159265358979,-3.14159265358979,                  75P     92
-3.14159265358979,-1.5707963267949,-1.5707963267949,0.,0.,            75P     93
1.5707963267949,1.5707963267949,1.5707963267949,1.,                   75P     94
0.707106781186547,1.,0.707106781186547,1.,0.707106781186547,1.,       75P     95
-28.5,0.,3.49024337756996D-15,-28.5,0.,28.5,                          75P     96
1.74512168878498D-15,0.,28.5,28.5,0.,28.5,28.5,0.,0.,28.5,0.,         75P     97
-28.5,1.74512168878498D-15,0.,-28.5,-3.14159265358979,                75P     98
1.5707963267949,0.,0.,0.;                                             75P     99
126,8,2,0,1,0,0,-3.14159265358979,-3.14159265358979,                  77P    100
-3.14159265358979,-1.5707963267949,-1.5707963267949,0.,0.,            77P    101
1.5707963267949,1.5707963267949,3.14159265358979,                     77P    102
3.14159265358979,3.14159265358979,1.,0.707106781186548,1.,            77P    103
0.707106781186548,1.,0.707106781186548,1.,0.707106781186548,1.,       77P    104
26.25,0.,-3.2146978477618D-15,26.25,0.,-26.25,                        77P    105
-1.6073489238809D-15,0.,-26.25,-26.25,0.,-26.25,-26.25,0.,0.,         77P    106
-26.25,0.,26.25,-1.6073489238809D-15,0.,26.25,26.25,0.,26.25,         77P    107
26.25,0.,3.2146978477618D-15,-3.14159265358979,3.14159265358979,      77P    108
0.,0.,0.;                                                             77P    109
126,8,2,0,1,0,0,-3.14159265358979,-3.14159265358979,                  79P    110
-3.14159265358979,-1.5707963267949,-1.5707963267949,0.,0.,            79P    111
1.5707963267949,1.5707963267949,3.14159265358979,                     79P    112
3.14159265358979,3.14159265358979,1.,0.707106781186548,1.,            79P    113
0.707106781186548,1.,0.707106781186548,1.,0.707106781186548,1.,       79P    114
26.25,2.,3.2146978477618D-15,26.25,2.,26.25,                          79P    115
-1.6073489238809D-15,2.,26.25,-26.25,2.,26.25,-26.25,2.,0.,           79P    116
-26.25,2.,-26.25,-1.6073489238809D-15,2.,-26.25,26.25,2.,-26.25,      79P    117
26.25,2.,-3.2146978477618D-15,-3.14159265358979,                      79P    118
3.14159265358979,0.,0.,0.;                                            79P    119
126,8,2,0,1,0,0,-3.14159265358979,-3.14159265358979,                  81P    120
-3.14159265358979,-1.5707963267949,-1.5707963267949,0.,0.,            81P    121
1.5707963267949,1.5707963267949,3.14159265358979,                     81P    122
3.14159265358979,3.14159265358979,1.,0.707106781186548,1.,            81P    123
0.707106781186548,1.,0.707106781186548,1.,0.707106781186548,1.,       81P    124
23.5,2.,2.87791997799628D-15,23.5,2.,23.5,-1.43895998899814D-15,      81P    125
2.,23.5,-23.5,2.,23.5,-23.5,2.,0.,-23.5,2.,-23.5,                     81P    126
-1.43895998899814D-15,2.,-23.5,23.5,2.,-23.5,23.5,2.,                 81P    127
-2.87791997799628D-15,-3.14159265358979,3.14159265358979,0.,0.,       81P    128
0.;                                                                   81P    129
126,1,1,0,0,1,0,-0.0761904761904763,-0.0761904761904763,0.,0.,        83P    130
1.,1.,26.25,2.,0.,26.25,0.,0.,-0.0761904761904763,0.,0.,0.,0.;        83P    131
126,8,2,0,1,0,0,-3.14159265358979,-3.14159265358979,                  85P    132
-3.14159265358979,-1.5707963267949,-1.5707963267949,0.,0.,            85P    133
1.5707963267949,1.5707963267949,3.14159265358979,                     85P    134
3.14159265358979,3.14159265358979,1.,0.707106781186548,1.,            85P    135
0.707106781186548,1.,0.707106781186548,1.,0.707106781186548,1.,       85P    136
26.25,24.,3.2146978477618D-15,26.25,24.,26.25,                        85P    137
-1.6073489238809D-15,24.,26.25,-26.25,24.,26.25,-26.25,24.,0.,        85P    138
-26.25,24.,-26.25,-1.6073489238809D-15,24.,-26.25,26.25,24.,          85P    139
-26.25,26.25,24.,-3.2146978477618D-15,-3.14159265358979,              85P    140
3.14159265358979,0.,0.,0.;                                            85P    141
126,8,2,0,1,0,0,-3.14159265358979,-3.14159265358979,                  87P    142
-3.14159265358979,-1.5707963267949,-1.5707963267949,0.,0.,            87P    143
1.5707963267949,1.5707963267949,3.14159265358979,                     87P    144
3.14159265358979,3.14159265358979,1.,0.707106781186548,1.,            87P    145
0.707106781186548,1.,0.707106781186548,1.,0.707106781186548,1.,       87P    146
23.5,24.,-2.87791997799628D-15,23.5,24.,-23.5,                        87P    147
-1.43895998899814D-15,24.,-23.5,-23.5,24.,-23.5,-23.5,24.,0.,         87P    148
-23.5,24.,23.5,-1.43895998899814D-15,24.,23.5,23.5,24.,23.5,          87P    149
23.5,24.,2.87791997799628D-15,-3.14159265358979,                      87P    150
3.14159265358979,0.,0.,0.;                                            87P    151
126,1,1,0,0,1,0,-0.0761904761904763,-0.0761904761904763,0.,0.,        89P    152
1.,1.,26.25,24.,0.,26.25,26.,0.,-0.0761904761904763,0.,0.,0.,0.;      89P    153
126,1,1,0,0,1,0,-0.468085106382979,-0.468085106382979,                91P    154
0.468085106382979,0.468085106382979,1.,1.,23.5,2.,0.,23.5,24.,        91P    155
0.,-0.468085106382979,0.468085106382979,0.,0.,0.;                     91P    156
128,2,8,2,2,0,1,0,0,1,0.,0.,0.,1.5707963267949,1.5707963267949,       93P    157
1.5707963267949,-3.14159265358979,-3.14159265358979,                  93P    158
-3.14159265358979,-1.5707963267949,-1.5707963267949,0.,0.,            93P    159
1.5707963267949,1.5707963267949,3.14159265358979,                     93P    160
3.14159265358979,3.14159265358979,1.,0.707106781186549,1.,            93P    161
0.707106781186548,0.500000000000001,0.707106781186548,1.,             93P    162
0.707106781186549,1.,0.707106781186548,0.500000000000001,             93P    163
0.707106781186548,1.,0.707106781186549,1.,0.707106781186548,          93P    164
0.500000000000001,0.707106781186548,1.,0.707106781186549,1.,          93P    165
0.707106781186548,0.500000000000001,0.707106781186548,1.,             93P    166
0.707106781186549,1.,0.,26.,-28.5,0.,26.,-32.5,0.,22.,-32.5,          93P    167
-28.5,26.,-28.5,-32.5,26.,-32.5,-32.5,22.,-32.5,-28.5,26.,0.,         93P    168
-32.5,26.,0.,-32.5,22.,0.,-28.5,26.,28.5,-32.5,26.,32.5,-32.5,        93P    169
22.,32.5,0.,26.,28.5,0.,26.,32.5,0.,22.,32.5,28.5,26.,28.5,32.5,      93P    170
26.,32.5,32.5,22.,32.5,28.5,26.,0.,32.5,26.,0.,32.5,22.,0.,28.5,      93P    171
26.,-28.5,32.5,26.,-32.5,32.5,22.,-32.5,0.,26.,-28.5,0.,26.,          93P    172
-32.5,0.,22.,-32.5,0.,1.5707963267949,-3.14159265358979,              93P    173
3.14159265358979;                                                     93P    174
128,1,8,1,2,0,1,0,0,1,0.123076923076923,0.123076923076923,            95P    175
0.676923076923077,0.676923076923077,-3.14159265358979,                95P    176
-3.14159265358979,-3.14159265358979,-1.5707963267949,                 95P    177
-1.5707963267949,0.,0.,1.5707963267949,1.5707963267949,               95P    178
3.14159265358979,3.14159265358979,3.14159265358979,1.,1.,             95P    179
0.707106781186548,0.707106781186548,1.,1.,0.707106781186548,          95P    180
0.707106781186548,1.,1.,0.707106781186548,0.707106781186548,1.,       95P    181
1.,0.707106781186548,0.707106781186548,1.,1.,-32.5,22.,0.,-32.5,      95P    182
4.,0.,-32.5,22.,32.5,-32.5,4.,32.5,0.,22.,32.5,0.,4.,32.5,32.5,       95P    183
22.,32.5,32.5,4.,32.5,32.5,22.,0.,32.5,4.,0.,32.5,22.,-32.5,          95P    184
32.5,4.,-32.5,0.,22.,-32.5,0.,4.,-32.5,-32.5,22.,-32.5,-32.5,4.,      95P    185
-32.5,-32.5,22.,0.,-32.5,4.,0.,0.123076923076923,                     95P    186
0.676923076923077,-3.14159265358979,3.14159265358979;                 95P    187
128,1,1,1,1,0,0,1,0,0,-2.851,-2.851,2.851,2.851,-2.851,-2.851,        97P    188
2.851,2.851,1.,1.,1.,1.,-28.51,26.,28.51,28.51,26.,28.51,-28.51,      97P    189
26.,-28.51,28.51,26.,-28.51,-2.851,2.851,-2.851,2.851;                97P    190
128,2,8,2,2,0,1,0,0,1,-1.5707963267949,-1.5707963267949,              99P    191
-1.5707963267949,0.,0.,0.,-3.14159265358979,-3.14159265358979,        99P    192
-3.14159265358979,-1.5707963267949,-1.5707963267949,0.,0.,            99P    193
1.5707963267949,1.5707963267949,3.14159265358979,                     99P    194
3.14159265358979,3.14159265358979,1.,0.707106781186547,1.,            99P    195
0.707106781186548,0.5,0.707106781186548,1.,0.707106781186547,1.,      99P    196
0.707106781186548,0.5,0.707106781186548,1.,0.707106781186547,1.,      99P    197
0.707106781186548,0.5,0.707106781186548,1.,0.707106781186547,1.,      99P    198
0.707106781186548,0.5,0.707106781186548,1.,0.707106781186547,1.,      99P    199
0.,4.,-32.5,0.,-5.1104273853354D-16,-32.5,0.,0.,-28.5,-32.5,4.,       99P    200
-32.5,-32.5,-5.1104273853354D-16,-32.5,-28.5,0.,-28.5,-32.5,4.,       99P    201
0.,-32.5,-5.55111512312578D-16,0.,-28.5,0.,0.,-32.5,4.,32.5,          99P    202
-32.5,-5.99180286091616D-16,32.5,-28.5,0.,28.5,0.,4.,32.5,0.,         99P    203
-5.99180286091616D-16,32.5,0.,0.,28.5,32.5,4.,32.5,32.5,              99P    204
-5.99180286091616D-16,32.5,28.5,0.,28.5,32.5,4.,0.,32.5,              99P    205
-5.55111512312578D-16,0.,28.5,0.,0.,32.5,4.,-32.5,32.5,               99P    206
-5.1104273853354D-16,-32.5,28.5,0.,-28.5,0.,4.,-32.5,0.,              99P    207
-5.1104273853354D-16,-32.5,0.,0.,-28.5,-1.5707963267949,0.,           99P    208
-3.14159265358979,3.14159265358979;                                   99P    209
128,1,1,1,1,0,0,1,0,0,-2.851,-2.851,2.851,2.851,-2.851,-2.851,       101P    210
2.851,2.851,1.,1.,1.,1.,28.51,0.,28.51,-28.51,0.,28.51,28.51,0.,     101P    211
-28.51,-28.51,0.,-28.51,-2.851,2.851,-2.851,2.851;                   101P    212
128,1,1,1,1,0,0,1,0,0,-2.626,-2.626,2.626,2.626,-2.626,-2.626,       103P    213
2.626,2.626,1.,1.,1.,1.,-26.26,2.,-26.26,26.26,2.,-26.26,-26.26,     103P    214
2.,26.26,26.26,2.,26.26,-2.626,2.626,-2.626,2.626;                   103P    215
128,1,8,1,2,0,1,0,0,1,-0.0761904761904763,-0.0761904761904763,       105P    216
0.,0.,-3.14159265358979,-3.14159265358979,-3.14159265358979,         105P    217
-1.5707963267949,-1.5707963267949,0.,0.,1.5707963267949,             105P    218
1.5707963267949,3.14159265358979,3.14159265358979,                   105P    219
3.14159265358979,1.,1.,0.707106781186548,0.707106781186548,1.,       105P    220
1.,0.707106781186548,0.707106781186548,1.,1.,0.707106781186548,      105P    221
0.707106781186548,1.,1.,0.707106781186548,0.707106781186548,1.,      105P    222
1.,26.25,0.,0.,26.25,2.,0.,26.25,0.,-26.25,26.25,2.,-26.25,0.,       105P    223
0.,-26.25,0.,2.,-26.25,-26.25,0.,-26.25,-26.25,2.,-26.25,-26.25,     105P    224
0.,0.,-26.25,2.,0.,-26.25,0.,26.25,-26.25,2.,26.25,0.,0.,26.25,      105P    225
0.,2.,26.25,26.25,0.,26.25,26.25,2.,26.25,26.25,0.,0.,26.25,2.,      105P    226
0.,-0.0761904761904763,0.,-3.14159265358979,3.14159265358979;        105P    227
128,1,1,1,1,0,0,1,0,0,-2.626,-2.626,2.626,2.626,-2.626,-2.626,       107P    228
2.626,2.626,1.,1.,1.,1.,26.26,24.,-26.26,-26.26,24.,-26.26,          107P    229
26.26,24.,26.26,-26.26,24.,26.26,-2.626,2.626,-2.626,2.626;          107P    230
128,1,8,1,2,0,1,0,0,1,-0.0761904761904763,-0.0761904761904763,       109P    231
0.,0.,-3.14159265358979,-3.14159265358979,-3.14159265358979,         109P    232
-1.5707963267949,-1.5707963267949,0.,0.,1.5707963267949,             109P    233
1.5707963267949,3.14159265358979,3.14159265358979,                   109P    234
3.14159265358979,1.,1.,0.707106781186548,0.707106781186548,1.,       109P    235
1.,0.707106781186548,0.707106781186548,1.,1.,0.707106781186548,      109P    236
0.707106781186548,1.,1.,0.707106781186548,0.707106781186548,1.,      109P    237
1.,26.25,24.,0.,26.25,26.,0.,26.25,24.,-26.25,26.25,26.,-26.25,      109P    238
0.,24.,-26.25,0.,26.,-26.25,-26.25,24.,-26.25,-26.25,26.,-26.25,     109P    239
-26.25,24.,0.,-26.25,26.,0.,-26.25,24.,26.25,-26.25,26.,26.25,       109P    240
0.,24.,26.25,0.,26.,26.25,26.25,24.,26.25,26.25,26.,26.25,26.25,     109P    241
24.,0.,26.25,26.,0.,-0.0761904761904763,0.,-3.14159265358979,        109P    242
3.14159265358979;                                                    109P    243
128,1,8,1,2,0,1,0,0,1,-0.468085106382979,-0.468085106382979,         111P    244
0.468085106382979,0.468085106382979,-3.14159265358979,               111P    245
-3.14159265358979,-3.14159265358979,-1.5707963267949,                111P    246
-1.5707963267949,0.,0.,1.5707963267949,1.5707963267949,              111P    247
3.14159265358979,3.14159265358979,3.14159265358979,1.,1.,            111P    248
0.707106781186548,0.707106781186548,1.,1.,0.707106781186548,         111P    249
0.707106781186548,1.,1.,0.707106781186548,0.707106781186548,1.,      111P    250
1.,0.707106781186548,0.707106781186548,1.,1.,23.5,2.,0.,23.5,        111P    251
24.,0.,23.5,2.,-23.5,23.5,24.,-23.5,0.,2.,-23.5,0.,24.,-23.5,        111P    252
-23.5,2.,-23.5,-23.5,24.,-23.5,-23.5,2.,0.,-23.5,24.,0.,-23.5,       111P    253
2.,23.5,-23.5,24.,23.5,0.,2.,23.5,0.,24.,23.5,23.5,2.,23.5,23.5,     111P    254
24.,23.5,23.5,2.,0.,23.5,24.,0.,-0.468085106382979,                  111P    255
0.468085106382979,-3.14159265358979,3.14159265358979;                111P    256
502,14,-28.5,26.,-3.49024337756996D-15,0.,26.,-28.5,0.,22.,          113P    257
-32.5,-32.5,22.,3.9801020972289D-15,-32.5,4.,                        113P    258
-3.9801020972289D-15,0.,4.,-32.5,26.25,26.,3.2146978477618D-15,      113P    259
0.,0.,-28.5,-28.5,0.,3.49024337756996D-15,26.25,0.,                  113P    260
-3.2146978477618D-15,26.25,2.,-3.2146978477618D-15,23.5,2.,          113P    261
-2.87791997799628D-15,26.25,24.,-3.2146978477618D-15,23.5,24.,       113P    262
-2.87791997799628D-15;                                               113P    263
504,20,53,113,1,113,2,55,113,2,113,3,57,113,3,113,4,59,113,4,        115P    264
113,3,61,113,2,113,1,63,113,4,113,5,65,113,6,113,5,67,113,5,113,     115P    265
6,69,113,7,113,7,71,113,6,113,8,73,113,8,113,9,75,113,9,113,8,       115P    266
77,113,10,113,10,79,113,11,113,11,81,113,12,113,12,83,113,11,        115P    267
113,10,85,113,13,113,13,87,113,14,113,14,89,113,13,113,7,91,113,     115P    268
12,113,14;                                                           115P    269
406,1,5HBody1;                                                       117P    270
314,15.2941176470588,15.2941176470588,15.2941176470588,13HRubber     119P    271
 - Soft;                                                             119P    272
314,62.7450980392157,62.7450980392157,62.7450980392157,13HSteel      121P    273
- Satin;                                                             121P    274
S      1G      3D    122P    274                                        T      1
